<?xml version="1.0" encoding="UTF-8" standalone="no"?>
<!DOCTYPE svg PUBLIC "-//W3C//DTD SVG 1.1//EN"
 "http://www.w3.org/Graphics/SVG/1.1/DTD/svg11.dtd">
<!-- Generated by graphviz version 2.36.0 (20140111.2315)
 -->
<!-- Title: models_diagram Pages: 1 -->
<svg width="2432pt" height="572pt"
 viewBox="0.00 0.00 2432.00 572.00" xmlns="http://www.w3.org/2000/svg" xmlns:xlink="http://www.w3.org/1999/xlink">
<g id="graph0" class="graph" transform="scale(1 1) rotate(0) translate(4 568)">
<title>models_diagram</title>
<polygon fill="none" stroke="none" points="-4,4 -4,-568 2428,-568 2428,4 -4,4"/>
<!-- _diagram_info -->
<g id="node1" class="node"><title>_diagram_info</title>
<text text-anchor="start" x="330" y="-549.6" font-family="Times,serif" font-size="13.00">Models diagram</text>
<text text-anchor="start" x="330" y="-535.6" font-family="Times,serif" font-size="13.00">Date: Jan 28 2016 &#45; 07:47</text>
<text text-anchor="start" x="330" y="-521.6" font-family="Times,serif" font-size="13.00">Migration version: 104</text>
<text text-anchor="start" x="330" y="-507.6" font-family="Times,serif" font-size="13.00">Generated by RailRoady 1.4.2</text>
<text text-anchor="start" x="330" y="-493.6" font-family="Times,serif" font-size="13.00">http://railroady.prestonlee.com</text>
</g>
<!-- Tag -->
<g id="node2" class="node"><title>Tag</title>
<ellipse fill="none" stroke="black" cx="549" cy="-525" rx="27" ry="18"/>
<text text-anchor="middle" x="549" y="-521.3" font-family="Times,serif" font-size="14.00">Tag</text>
</g>
<!-- Article -->
<g id="node27" class="node"><title>Article</title>
<ellipse fill="none" stroke="black" cx="549" cy="-430" rx="35.1455" ry="18"/>
<text text-anchor="middle" x="549" y="-426.3" font-family="Times,serif" font-size="14.00">Article</text>
</g>
<!-- Tag&#45;&gt;Article -->
<g id="edge1" class="edge"><title>Tag&#45;&gt;Article</title>
<path fill="none" stroke="#c5e637" d="M549,-496.77C549,-484.646 549,-470.399 549,-458.271"/>
<polygon fill="#c5e637" stroke="#c5e637" points="549,-496.942 544.5,-506.942 549,-501.942 549,-506.942 549,-506.942 549,-506.942 549,-501.942 553.5,-506.942 549,-496.942 549,-496.942"/>
<polygon fill="#c5e637" stroke="#c5e637" points="549,-458.264 553.5,-448.264 549,-453.264 549,-448.264 549,-448.264 549,-448.264 549,-453.264 544.5,-448.264 549,-458.264 549,-458.264"/>
</g>
<!-- WebNotifier -->
<g id="node3" class="node"><title>WebNotifier</title>
<polygon fill="none" stroke="black" points="1079,-543 993,-543 993,-507 1079,-507 1079,-543"/>
<text text-anchor="middle" x="1036" y="-521.3" font-family="Times,serif" font-size="14.00">WebNotifier</text>
</g>
<!-- NotificationMailer -->
<g id="node4" class="node"><title>NotificationMailer</title>
<polygon fill="none" stroke="black" points="1216.25,-543 1097.75,-543 1097.75,-507 1216.25,-507 1216.25,-543"/>
<text text-anchor="middle" x="1157" y="-521.3" font-family="Times,serif" font-size="14.00">NotificationMailer</text>
</g>
<!-- Feedback::States -->
<g id="node5" class="node"><title>Feedback::States</title>
<polygon fill="none" stroke="black" stroke-dasharray="1,5" points="1343,-543 1235,-543 1235,-507 1343,-507 1343,-543"/>
<text text-anchor="middle" x="1289" y="-521.3" font-family="Times,serif" font-size="14.00">Feedback::States</text>
</g>
<!-- Content -->
<g id="node6" class="node"><title>Content</title>
<ellipse fill="none" stroke="black" cx="385" cy="-166" rx="38.0212" ry="18"/>
<text text-anchor="middle" x="385" y="-162.3" font-family="Times,serif" font-size="14.00">Content</text>
</g>
<!-- Redirection -->
<g id="node13" class="node"><title>Redirection</title>
<ellipse fill="none" stroke="black" cx="460" cy="-18" rx="51.4931" ry="18"/>
<text text-anchor="middle" x="460" y="-14.3" font-family="Times,serif" font-size="14.00">Redirection</text>
</g>
<!-- Content&#45;&gt;Redirection -->
<g id="edge4" class="edge"><title>Content&#45;&gt;Redirection</title>
<path fill="none" stroke="#6af481" d="M388.978,-140.127C392.736,-121.15 399.546,-94.816 411,-74 417.261,-62.6207 426.267,-51.6137 434.854,-42.4747"/>
<ellipse fill="none" stroke="#6af481" cx="388.239" cy="-144.095" rx="4.00001" ry="4.00001"/>
<polygon fill="#6af481" stroke="#6af481" points="434.907,-42.4199 445.116,-38.4162 438.403,-38.845 441.899,-35.2701 441.899,-35.2701 441.899,-35.2701 438.403,-38.845 438.681,-32.1239 434.907,-42.4199 434.907,-42.4199"/>
</g>
<!-- Trigger -->
<g id="node16" class="node"><title>Trigger</title>
<ellipse fill="none" stroke="black" cx="780" cy="-92" rx="37.0701" ry="18"/>
<text text-anchor="middle" x="780" y="-88.3" font-family="Times,serif" font-size="14.00">Trigger</text>
</g>
<!-- Content&#45;&gt;Trigger -->
<g id="edge6" class="edge"><title>Content&#45;&gt;Trigger</title>
<path fill="none" stroke="#0cf0cc" d="M428.355,-157.097C503.998,-143.309 659.293,-115.002 735.637,-101.086"/>
<ellipse fill="none" stroke="#0cf0cc" cx="423.989" cy="-157.893" rx="4.00001" ry="4.00001"/>
<polygon fill="#0cf0cc" stroke="#0cf0cc" points="736.032,-101.015 746.676,-103.648 740.951,-100.118 745.869,-99.2213 745.869,-99.2213 745.869,-99.2213 740.951,-100.118 745.063,-94.7942 736.032,-101.015 736.032,-101.015"/>
</g>
<!-- Redirect -->
<g id="node24" class="node"><title>Redirect</title>
<ellipse fill="none" stroke="black" cx="460" cy="-92" rx="39.9464" ry="18"/>
<text text-anchor="middle" x="460" y="-88.3" font-family="Times,serif" font-size="14.00">Redirect</text>
</g>
<!-- Content&#45;&gt;Redirect -->
<g id="edge5" class="edge"><title>Content&#45;&gt;Redirect</title>
<path fill="none" stroke="#02b77b" d="M408.789,-142.163C417.604,-133.7 427.591,-124.112 436.39,-115.665"/>
<polygon fill="#02b77b" stroke="#02b77b" points="408.488,-142.452 398.157,-146.131 404.881,-145.914 401.274,-149.377 401.274,-149.377 401.274,-149.377 404.881,-145.914 404.39,-152.623 408.488,-142.452 408.488,-142.452"/>
<polygon fill="#02b77b" stroke="#02b77b" points="436.544,-115.518 446.874,-111.839 440.151,-112.055 443.758,-108.592 443.758,-108.592 443.758,-108.592 440.151,-112.055 440.641,-105.346 436.544,-115.518 436.544,-115.518"/>
</g>
<!-- Notification -->
<g id="node30" class="node"><title>Notification</title>
<ellipse fill="none" stroke="black" cx="211" cy="-92" rx="52.9443" ry="18"/>
<text text-anchor="middle" x="211" y="-88.3" font-family="Times,serif" font-size="14.00">Notification</text>
</g>
<!-- Content&#45;&gt;Notification -->
<g id="edge2" class="edge"><title>Content&#45;&gt;Notification</title>
<path fill="none" stroke="#0519c2" d="M345.251,-153.285C325.63,-147.085 301.771,-138.915 281,-130 269.257,-124.96 256.811,-118.7 245.721,-112.772"/>
<ellipse fill="none" stroke="#0519c2" cx="349.282" cy="-154.542" rx="4.00001" ry="4.00001"/>
<polygon fill="#0519c2" stroke="#0519c2" points="245.556,-112.682 238.92,-103.951 241.163,-110.293 236.77,-107.905 236.77,-107.905 236.77,-107.905 241.163,-110.293 234.621,-111.858 245.556,-112.682 245.556,-112.682"/>
</g>
<!-- User -->
<g id="node32" class="node"><title>User</title>
<ellipse fill="none" stroke="black" cx="432" cy="-254" rx="26.949" ry="18"/>
<text text-anchor="middle" x="432" y="-250.3" font-family="Times,serif" font-size="14.00">User</text>
</g>
<!-- Content&#45;&gt;User -->
<g id="edge3" class="edge"><title>Content&#45;&gt;User</title>
<path fill="none" stroke="#b57d0e" d="M353.622,-186.823C343.09,-196.005 335.673,-207.245 343,-218 354.728,-235.214 376.334,-243.962 395.321,-248.407"/>
<polygon fill="#b57d0e" stroke="#b57d0e" points="353.793,-186.69 364.444,-184.084 357.734,-183.614 361.676,-180.537 361.676,-180.537 361.676,-180.537 357.734,-183.614 358.907,-176.99 353.793,-186.69 353.793,-186.69"/>
<polygon fill="#b57d0e" stroke="#b57d0e" points="395.43,-248.429 404.34,-254.822 400.331,-249.42 405.232,-250.411 405.232,-250.411 405.232,-250.411 400.331,-249.42 406.124,-246 395.43,-248.429 395.43,-248.429"/>
<text text-anchor="middle" x="376.5" y="-206.3" font-family="Times,serif" font-size="14.00">notify_users</text>
</g>
<!-- BlogSweeper -->
<g id="node7" class="node"><title>BlogSweeper</title>
<polygon fill="none" stroke="black" points="1450.25,-543 1361.75,-543 1361.75,-507 1450.25,-507 1450.25,-543"/>
<text text-anchor="middle" x="1406" y="-521.3" font-family="Times,serif" font-size="14.00">BlogSweeper</text>
</g>
<!-- Ping -->
<g id="node8" class="node"><title>Ping</title>
<ellipse fill="none" stroke="black" cx="189" cy="-342" rx="27" ry="18"/>
<text text-anchor="middle" x="189" y="-338.3" font-family="Times,serif" font-size="14.00">Ping</text>
</g>
<!-- Sidebar -->
<g id="node9" class="node"><title>Sidebar</title>
<ellipse fill="none" stroke="black" cx="1506" cy="-525" rx="37.5442" ry="18"/>
<text text-anchor="middle" x="1506" y="-521.3" font-family="Times,serif" font-size="14.00">Sidebar</text>
</g>
<!-- Trackback -->
<g id="node10" class="node"><title>Trackback</title>
<ellipse fill="none" stroke="black" cx="648" cy="-342" rx="48.1437" ry="18"/>
<text text-anchor="middle" x="648" y="-338.3" font-family="Times,serif" font-size="14.00">Trackback</text>
</g>
<!-- Trackback&#45;&gt;Redirection -->
<g id="edge9" class="edge"><title>Trackback&#45;&gt;Redirection</title>
<path fill="none" stroke="#dc55c8" d="M690.93,-327.101C771.728,-298.344 934.377,-226.66 889,-128 873.59,-94.4957 859.538,-89.3363 826,-74 772.617,-49.5889 609.002,-32.0068 519.694,-23.9404"/>
<ellipse fill="none" stroke="#dc55c8" cx="687.151" cy="-328.426" rx="4.00001" ry="4.00001"/>
<polygon fill="#dc55c8" stroke="#dc55c8" points="519.67,-23.9384 510.109,-18.5681 514.69,-23.4943 509.709,-23.0503 509.709,-23.0503 509.709,-23.0503 514.69,-23.4943 509.31,-27.5325 519.67,-23.9384 519.67,-23.9384"/>
</g>
<!-- Trackback&#45;&gt;Trigger -->
<g id="edge11" class="edge"><title>Trackback&#45;&gt;Trigger</title>
<path fill="none" stroke="#8d2d3b" d="M692.2,-326.824C703.308,-321.639 714.479,-314.813 723,-306 772.654,-254.643 780.205,-164.976 780.651,-120.142"/>
<ellipse fill="none" stroke="#8d2d3b" cx="688.22" cy="-328.558" rx="4.00002" ry="4.00002"/>
<polygon fill="#8d2d3b" stroke="#8d2d3b" points="780.651,-120.013 785.136,-110.006 780.643,-115.013 780.636,-110.013 780.636,-110.013 780.636,-110.013 780.643,-115.013 776.136,-110.02 780.651,-120.013 780.651,-120.013"/>
</g>
<!-- Trackback&#45;&gt;Redirect -->
<g id="edge10" class="edge"><title>Trackback&#45;&gt;Redirect</title>
<path fill="none" stroke="#3ba7df" d="M685.311,-321.275C690.419,-316.941 694.949,-311.859 698,-306 701.284,-299.693 700.345,-296.713 698,-290 671.401,-213.857 647.125,-199.437 585,-148 561.034,-128.157 528.79,-114.205 503.054,-105.318"/>
<polygon fill="#3ba7df" stroke="#3ba7df" points="684.974,-321.525 674.26,-323.86 680.956,-324.501 676.938,-327.477 676.938,-327.477 676.938,-327.477 680.956,-324.501 679.616,-331.093 684.974,-321.525 684.974,-321.525"/>
<polygon fill="#3ba7df" stroke="#3ba7df" points="503.03,-105.31 494.958,-97.8881 498.285,-103.735 493.54,-102.159 493.54,-102.159 493.54,-102.159 498.285,-103.735 492.121,-106.429 503.03,-105.31 503.03,-105.31"/>
</g>
<!-- Trackback&#45;&gt;Notification -->
<g id="edge7" class="edge"><title>Trackback&#45;&gt;Notification</title>
<path fill="none" stroke="#feb895" d="M623.294,-319.658C618.951,-315.356 614.656,-310.704 611,-306 589.144,-277.882 596.509,-261.839 572,-236 490.197,-149.755 349.811,-114.476 270.357,-100.87"/>
<ellipse fill="none" stroke="#feb895" cx="626.297" cy="-322.519" rx="4.00002" ry="4.00002"/>
<polygon fill="#feb895" stroke="#feb895" points="269.901,-100.795 260.767,-94.7258 264.967,-99.9802 260.034,-99.1657 260.034,-99.1657 260.034,-99.1657 264.967,-99.9802 259.301,-103.606 269.901,-100.795 269.901,-100.795"/>
</g>
<!-- Trackback&#45;&gt;User -->
<g id="edge8" class="edge"><title>Trackback&#45;&gt;User</title>
<path fill="none" stroke="#865d21" d="M596.02,-330.843C571.235,-325.093 541.5,-316.854 516,-306 495.603,-297.318 474.271,-284.31 458.208,-273.605"/>
<polygon fill="#865d21" stroke="#865d21" points="596.202,-330.884 604.971,-337.468 601.08,-331.981 605.958,-333.078 605.958,-333.078 605.958,-333.078 601.08,-331.981 606.946,-328.687 596.202,-330.884 596.202,-330.884"/>
<polygon fill="#865d21" stroke="#865d21" points="458.137,-273.557 452.395,-264.215 454.001,-270.747 449.866,-267.937 449.866,-267.937 449.866,-267.937 454.001,-270.747 447.337,-271.659 458.137,-273.557 458.137,-273.557"/>
<text text-anchor="middle" x="549.5" y="-294.3" font-family="Times,serif" font-size="14.00">notify_users</text>
</g>
<!-- Theme -->
<g id="node11" class="node"><title>Theme</title>
<polygon fill="none" stroke="black" points="1616.25,-543 1561.75,-543 1561.75,-507 1616.25,-507 1616.25,-543"/>
<text text-anchor="middle" x="1589" y="-521.3" font-family="Times,serif" font-size="14.00">Theme</text>
</g>
<!-- PageCache -->
<g id="node12" class="node"><title>PageCache</title>
<polygon fill="none" stroke="black" points="1711.25,-543 1634.75,-543 1634.75,-507 1711.25,-507 1711.25,-543"/>
<text text-anchor="middle" x="1673" y="-521.3" font-family="Times,serif" font-size="14.00">PageCache</text>
</g>
<!-- Blog -->
<g id="node14" class="node"><title>Blog</title>
<ellipse fill="none" stroke="black" cx="1757" cy="-525" rx="27.4223" ry="18"/>
<text text-anchor="middle" x="1757" y="-521.3" font-family="Times,serif" font-size="14.00">Blog</text>
</g>
<!-- Article::States -->
<g id="node15" class="node"><title>Article::States</title>
<polygon fill="none" stroke="black" stroke-dasharray="1,5" points="1897,-543 1803,-543 1803,-507 1897,-507 1897,-543"/>
<text text-anchor="middle" x="1850" y="-521.3" font-family="Times,serif" font-size="14.00">Article::States</text>
</g>
<!-- Page -->
<g id="node17" class="node"><title>Page</title>
<ellipse fill="none" stroke="black" cx="789" cy="-342" rx="27.4223" ry="18"/>
<text text-anchor="middle" x="789" y="-338.3" font-family="Times,serif" font-size="14.00">Page</text>
</g>
<!-- Page&#45;&gt;Redirection -->
<g id="edge14" class="edge"><title>Page&#45;&gt;Redirection</title>
<path fill="none" stroke="#5c7ac2" d="M821.436,-331.265C868.719,-314.835 951,-276.792 951,-211 951,-211 951,-211 951,-91 951,-48.01 652.531,-28.2883 521.005,-21.6847"/>
<ellipse fill="none" stroke="#5c7ac2" cx="817.395" cy="-332.625" rx="4.00001" ry="4.00001"/>
<polygon fill="#5c7ac2" stroke="#5c7ac2" points="520.684,-21.669 510.918,-16.6823 515.69,-21.4229 510.696,-21.1769 510.696,-21.1769 510.696,-21.1769 515.69,-21.4229 510.475,-25.6714 520.684,-21.669 520.684,-21.669"/>
</g>
<!-- Page&#45;&gt;Trigger -->
<g id="edge16" class="edge"><title>Page&#45;&gt;Trigger</title>
<path fill="none" stroke="#023b80" d="M812.21,-322.259C816.606,-317.465 820.581,-311.961 823,-306 825.674,-299.411 823.219,-297.108 823,-290 820.777,-217.897 841.677,-194.192 813,-128 811.068,-123.541 808.31,-119.301 805.2,-115.41"/>
<ellipse fill="none" stroke="#023b80" cx="809.34" cy="-325.112" rx="4.00002" ry="4.00002"/>
<polygon fill="#023b80" stroke="#023b80" points="805.175,-115.383 801.818,-104.943 801.826,-111.67 798.477,-107.958 798.477,-107.958 798.477,-107.958 801.826,-111.67 795.135,-110.972 805.175,-115.383 805.175,-115.383"/>
</g>
<!-- Page&#45;&gt;Redirect -->
<g id="edge15" class="edge"><title>Page&#45;&gt;Redirect</title>
<path fill="none" stroke="#f528dc" d="M797.467,-314.582C798.981,-306.661 799.625,-297.963 798,-290 781.033,-206.867 769.512,-172.056 697,-128 666.422,-109.422 569.901,-100.007 509.882,-95.8295"/>
<polygon fill="#f528dc" stroke="#f528dc" points="797.438,-314.699 790.719,-323.365 796.266,-319.56 795.093,-324.42 795.093,-324.42 795.093,-324.42 796.266,-319.56 799.468,-325.476 797.438,-314.699 797.438,-314.699"/>
<polygon fill="#f528dc" stroke="#f528dc" points="509.83,-95.8261 500.153,-90.6665 504.841,-95.4913 499.852,-95.1564 499.852,-95.1564 499.852,-95.1564 504.841,-95.4913 499.551,-99.6463 509.83,-95.8261 509.83,-95.8261"/>
</g>
<!-- Page&#45;&gt;Notification -->
<g id="edge12" class="edge"><title>Page&#45;&gt;Notification</title>
<path fill="none" stroke="#71f701" d="M775.253,-318.114C755.542,-287.236 716.353,-232.588 669,-202 544.755,-121.743 367.302,-100.485 273.952,-94.9186"/>
<ellipse fill="none" stroke="#71f701" cx="777.485" cy="-321.67" rx="4.00002" ry="4.00002"/>
<polygon fill="#71f701" stroke="#71f701" points="273.8,-94.9103 264.065,-89.8633 268.808,-94.6334 263.816,-94.3564 263.816,-94.3564 263.816,-94.3564 268.808,-94.6334 263.567,-98.8495 273.8,-94.9103 273.8,-94.9103"/>
</g>
<!-- Page&#45;&gt;User -->
<g id="edge13" class="edge"><title>Page&#45;&gt;User</title>
<path fill="none" stroke="#b91ed2" d="M754.009,-331.88C713.782,-321.463 645.736,-304.044 587,-290 546.14,-280.23 499.044,-269.699 467.589,-262.769"/>
<polygon fill="#b91ed2" stroke="#b91ed2" points="754.177,-331.924 762.727,-338.791 759.017,-333.18 763.857,-334.435 763.857,-334.435 763.857,-334.435 759.017,-333.18 764.987,-330.079 754.177,-331.924 754.177,-331.924"/>
<polygon fill="#b91ed2" stroke="#b91ed2" points="467.32,-262.71 458.519,-256.168 462.437,-261.636 457.553,-260.563 457.553,-260.563 457.553,-260.563 462.437,-261.636 456.587,-264.958 467.32,-262.71 467.32,-262.71"/>
<text text-anchor="middle" x="682.5" y="-294.3" font-family="Times,serif" font-size="14.00">notify_users</text>
</g>
<!-- Feedback -->
<g id="node18" class="node"><title>Feedback</title>
<ellipse fill="none" stroke="black" cx="100" cy="-342" rx="44.2946" ry="18"/>
<text text-anchor="middle" x="100" y="-338.3" font-family="Times,serif" font-size="14.00">Feedback</text>
</g>
<!-- Feedback&#45;&gt;Redirection -->
<g id="edge19" class="edge"><title>Feedback&#45;&gt;Redirection</title>
<path fill="none" stroke="#88b9f0" d="M71.3356,-321.409C41.7863,-298.644 0,-258.121 0,-211 0,-211 0,-211 0,-91 0,-51.0496 274.32,-29.8644 399.281,-22.2864"/>
<ellipse fill="none" stroke="#88b9f0" cx="74.6073" cy="-323.864" rx="4.00002" ry="4.00002"/>
<polygon fill="#88b9f0" stroke="#88b9f0" points="399.474,-22.275 409.724,-26.1715 404.465,-21.9772 409.456,-21.6795 409.456,-21.6795 409.456,-21.6795 404.465,-21.9772 409.188,-17.1874 399.474,-22.275 399.474,-22.275"/>
</g>
<!-- Feedback&#45;&gt;Trigger -->
<g id="edge21" class="edge"><title>Feedback&#45;&gt;Trigger</title>
<path fill="none" stroke="#71eb9e" d="M128.321,-321.777C166.238,-297.146 236.459,-255.327 303,-236 390.407,-210.612 419.01,-241.284 507,-218 510.112,-217.176 671.115,-143.13 744.376,-109.405"/>
<ellipse fill="none" stroke="#71eb9e" cx="124.971" cy="-323.974" rx="4.00002" ry="4.00002"/>
<polygon fill="#71eb9e" stroke="#71eb9e" points="744.608,-109.299 755.573,-109.204 749.149,-107.208 753.691,-105.117 753.691,-105.117 753.691,-105.117 749.149,-107.208 751.809,-101.029 744.608,-109.299 744.608,-109.299"/>
</g>
<!-- Feedback&#45;&gt;Redirect -->
<g id="edge20" class="edge"><title>Feedback&#45;&gt;Redirect</title>
<path fill="none" stroke="#3ec3ad" d="M105.367,-313.969C107.78,-305.822 111.202,-297.152 116,-290 171.035,-207.962 200.325,-195.397 287,-148 327.441,-125.886 378.137,-111.088 414.172,-102.465"/>
<polygon fill="#3ec3ad" stroke="#3ec3ad" points="105.315,-314.17 98.464,-322.733 104.068,-319.013 102.822,-323.855 102.822,-323.855 102.822,-323.855 104.068,-319.013 107.18,-324.977 105.315,-314.17 105.315,-314.17"/>
<polygon fill="#3ec3ad" stroke="#3ec3ad" points="414.187,-102.462 424.946,-104.579 419.057,-101.329 423.927,-100.196 423.927,-100.196 423.927,-100.196 419.057,-101.329 422.907,-95.8127 414.187,-102.462 414.187,-102.462"/>
</g>
<!-- Feedback&#45;&gt;Notification -->
<g id="edge17" class="edge"><title>Feedback&#45;&gt;Notification</title>
<path fill="none" stroke="#4a69e4" d="M92.0312,-316.327C91.1919,-312.891 90.4733,-309.38 90,-306 85.641,-274.877 87.1396,-264.675 100,-236 121.187,-188.76 161.071,-143.102 186.816,-116.552"/>
<ellipse fill="none" stroke="#4a69e4" cx="93.0999" cy="-320.255" rx="4.00001" ry="4.00001"/>
<polygon fill="#4a69e4" stroke="#4a69e4" points="186.976,-116.389 197.2,-112.423 190.486,-112.827 193.995,-109.265 193.995,-109.265 193.995,-109.265 190.486,-112.827 190.789,-106.107 186.976,-116.389 186.976,-116.389"/>
</g>
<!-- Feedback&#45;&gt;User -->
<g id="edge18" class="edge"><title>Feedback&#45;&gt;User</title>
<path fill="none" stroke="#d63774" d="M143.383,-327.074C146.637,-326.033 149.87,-324.999 153,-324 200.535,-308.824 211.705,-302.548 260,-290 306.374,-277.951 360.668,-267.499 395.658,-261.228"/>
<polygon fill="#d63774" stroke="#d63774" points="143.164,-327.144 132.268,-325.909 138.402,-328.669 133.64,-330.194 133.64,-330.194 133.64,-330.194 138.402,-328.669 135.013,-334.48 143.164,-327.144 143.164,-327.144"/>
<polygon fill="#d63774" stroke="#d63774" points="396.021,-261.164 406.653,-263.85 400.944,-260.292 405.867,-259.419 405.867,-259.419 405.867,-259.419 400.944,-260.292 405.082,-254.988 396.021,-261.164 396.021,-261.164"/>
<text text-anchor="middle" x="293.5" y="-294.3" font-family="Times,serif" font-size="14.00">notify_users</text>
</g>
<!-- Resource -->
<g id="node19" class="node"><title>Resource</title>
<ellipse fill="none" stroke="black" cx="917" cy="-342" rx="43.319" ry="18"/>
<text text-anchor="middle" x="917" y="-338.3" font-family="Times,serif" font-size="14.00">Resource</text>
</g>
<!-- Categorization -->
<g id="node20" class="node"><title>Categorization</title>
<ellipse fill="none" stroke="black" cx="1079" cy="-342" rx="62.0922" ry="18"/>
<text text-anchor="middle" x="1079" y="-338.3" font-family="Times,serif" font-size="14.00">Categorization</text>
</g>
<!-- PostType -->
<g id="node21" class="node"><title>PostType</title>
<ellipse fill="none" stroke="black" cx="1959" cy="-525" rx="44.2946" ry="18"/>
<text text-anchor="middle" x="1959" y="-521.3" font-family="Times,serif" font-size="14.00">PostType</text>
</g>
<!-- Right -->
<g id="node22" class="node"><title>Right</title>
<ellipse fill="none" stroke="black" cx="2052" cy="-525" rx="30.3206" ry="18"/>
<text text-anchor="middle" x="2052" y="-521.3" font-family="Times,serif" font-size="14.00">Right</text>
</g>
<!-- Profile -->
<g id="node29" class="node"><title>Profile</title>
<ellipse fill="none" stroke="black" cx="2052" cy="-430" rx="34.1708" ry="18"/>
<text text-anchor="middle" x="2052" y="-426.3" font-family="Times,serif" font-size="14.00">Profile</text>
</g>
<!-- Right&#45;&gt;Profile -->
<g id="edge22" class="edge"><title>Right&#45;&gt;Profile</title>
<path fill="none" stroke="#4eda0f" d="M2052,-496.77C2052,-484.646 2052,-470.399 2052,-458.271"/>
<polygon fill="#4eda0f" stroke="#4eda0f" points="2052,-496.942 2047.5,-506.942 2052,-501.942 2052,-506.942 2052,-506.942 2052,-506.942 2052,-501.942 2056.5,-506.942 2052,-496.942 2052,-496.942"/>
<polygon fill="#4eda0f" stroke="#4eda0f" points="2052,-458.264 2056.5,-448.264 2052,-453.264 2052,-448.264 2052,-448.264 2052,-448.264 2052,-453.264 2047.5,-448.264 2052,-458.264 2052,-458.264"/>
</g>
<!-- ConfigManager -->
<g id="node23" class="node"><title>ConfigManager</title>
<polygon fill="none" stroke="black" stroke-dasharray="1,5" points="2203.25,-543 2100.75,-543 2100.75,-507 2203.25,-507 2203.25,-543"/>
<text text-anchor="middle" x="2152" y="-521.3" font-family="Times,serif" font-size="14.00">ConfigManager</text>
</g>
<!-- Redirect&#45;&gt;Redirection -->
<g id="edge23" class="edge"><title>Redirect&#45;&gt;Redirection</title>
<path fill="none" stroke="#8c5d38" d="M460,-65.7923C460,-59.5805 460,-52.8963 460,-46.5786"/>
<ellipse fill="none" stroke="#8c5d38" cx="460" cy="-69.937" rx="4" ry="4"/>
<polygon fill="#8c5d38" stroke="#8c5d38" points="460,-46.4407 464.5,-36.4406 460,-41.4407 460,-36.4407 460,-36.4407 460,-36.4407 460,-41.4407 455.5,-36.4407 460,-46.4407 460,-46.4407"/>
</g>
<!-- Category -->
<g id="node25" class="node"><title>Category</title>
<ellipse fill="none" stroke="black" cx="869" cy="-525" rx="42.3456" ry="18"/>
<text text-anchor="middle" x="869" y="-521.3" font-family="Times,serif" font-size="14.00">Category</text>
</g>
<!-- Category&#45;&gt;Categorization -->
<g id="edge25" class="edge"><title>Category&#45;&gt;Categorization</title>
<path fill="none" stroke="#2ff489" d="M896.614,-504.317C930.159,-479.918 987.857,-436.358 1033,-394 1041.79,-385.754 1050.81,-376.071 1058.5,-367.37"/>
<ellipse fill="none" stroke="#2ff489" cx="893.076" cy="-506.879" rx="4.00002" ry="4.00002"/>
<polygon fill="#2ff489" stroke="#2ff489" points="1058.59,-367.268 1068.55,-362.679 1061.87,-363.497 1065.16,-359.725 1065.16,-359.725 1065.16,-359.725 1061.87,-363.497 1061.76,-356.771 1058.59,-367.268 1058.59,-367.268"/>
</g>
<!-- Category&#45;&gt;Category -->
<g id="edge24" class="edge"><title>Category&#45;&gt;Category</title>
<path fill="none" stroke="#6d41d2" d="M911.395,-535.678C921.512,-534.833 929,-531.274 929,-525 929,-519.157 922.504,-515.668 913.439,-514.534"/>
<ellipse fill="none" stroke="#6d41d2" cx="907.226" cy="-535.737" rx="4" ry="4"/>
<polygon fill="#6d41d2" stroke="#6d41d2" points="913.222,-514.528 903.372,-509.708 908.224,-514.366 903.227,-514.205 903.227,-514.205 903.227,-514.205 908.224,-514.366 903.082,-518.703 913.222,-514.528 913.222,-514.528"/>
<text text-anchor="middle" x="951.5" y="-521.3" font-family="Times,serif" font-size="14.00">children</text>
</g>
<!-- Category&#45;&gt;Article -->
<g id="edge26" class="edge"><title>Category&#45;&gt;Article</title>
<path fill="none" stroke="#06a2e9" d="M825.355,-511.316C762.901,-493.165 648.947,-460.047 588.731,-442.547"/>
<polygon fill="#06a2e9" stroke="#06a2e9" points="825.455,-511.345 833.801,-518.457 830.256,-512.74 835.057,-514.135 835.057,-514.135 835.057,-514.135 830.256,-512.74 836.313,-509.814 825.455,-511.345 825.455,-511.345"/>
<polygon fill="#06a2e9" stroke="#06a2e9" points="588.443,-442.463 580.096,-435.351 583.642,-441.068 578.84,-439.672 578.84,-439.672 578.84,-439.672 583.642,-441.068 577.585,-443.994 588.443,-442.463 588.443,-442.463"/>
</g>
<!-- Comment -->
<g id="node26" class="node"><title>Comment</title>
<ellipse fill="none" stroke="black" cx="280" cy="-342" rx="46.2191" ry="18"/>
<text text-anchor="middle" x="280" y="-338.3" font-family="Times,serif" font-size="14.00">Comment</text>
</g>
<!-- Comment&#45;&gt;Redirection -->
<g id="edge29" class="edge"><title>Comment&#45;&gt;Redirection</title>
<path fill="none" stroke="#3ead4b" d="M237.814,-327.328C211.141,-318.527 181.268,-308.315 179,-306 106.247,-231.726 82.1898,-153.662 149,-74 180.212,-36.7833 317.183,-24.7369 398.575,-20.8469"/>
<ellipse fill="none" stroke="#3ead4b" cx="241.79" cy="-328.635" rx="4.00001" ry="4.00001"/>
<polygon fill="#3ead4b" stroke="#3ead4b" points="398.711,-20.8409 408.904,-24.8866 403.706,-20.616 408.701,-20.3912 408.701,-20.3912 408.701,-20.3912 403.706,-20.616 408.499,-15.8957 398.711,-20.8409 398.711,-20.8409"/>
</g>
<!-- Comment&#45;&gt;Trigger -->
<g id="edge31" class="edge"><title>Comment&#45;&gt;Trigger</title>
<path fill="none" stroke="#4330df" d="M250.63,-321.045C240.435,-311.653 233.279,-300.282 241,-290 258.23,-267.056 275.817,-281.188 303,-272 344.988,-257.808 352.991,-246.707 396,-236 461.584,-219.673 480.819,-231.708 547,-218 598.773,-207.276 612.837,-205.813 661,-184 702.112,-165.38 712.527,-159.13 747,-130 751.717,-126.014 756.382,-121.356 760.654,-116.715"/>
<ellipse fill="none" stroke="#4330df" cx="253.834" cy="-323.745" rx="4.00002" ry="4.00002"/>
<polygon fill="#4330df" stroke="#4330df" points="760.802,-116.548 770.788,-112.019 764.107,-112.796 767.412,-109.045 767.412,-109.045 767.412,-109.045 764.107,-112.796 764.035,-106.07 760.802,-116.548 760.802,-116.548"/>
</g>
<!-- Comment&#45;&gt;Redirect -->
<g id="edge30" class="edge"><title>Comment&#45;&gt;Redirect</title>
<path fill="none" stroke="#2ed589" d="M236.254,-325.34C228.178,-320.416 220.79,-314.08 216,-306 212.373,-299.883 213.529,-296.668 216,-290 244.913,-211.98 271.375,-197.841 338,-148 362.389,-129.755 393.793,-115.773 418.631,-106.472"/>
<polygon fill="#2ed589" stroke="#2ed589" points="236.39,-325.413 243.07,-334.109 240.795,-327.779 245.199,-330.145 245.199,-330.145 245.199,-330.145 240.795,-327.779 247.329,-326.181 236.39,-325.413 236.39,-325.413"/>
<polygon fill="#2ed589" stroke="#2ed589" points="418.744,-106.431 429.68,-107.247 423.444,-104.724 428.144,-103.017 428.144,-103.017 428.144,-103.017 423.444,-104.724 426.607,-98.7875 418.744,-106.431 418.744,-106.431"/>
</g>
<!-- Comment&#45;&gt;Notification -->
<g id="edge27" class="edge"><title>Comment&#45;&gt;Notification</title>
<path fill="none" stroke="#8c8c02" d="M238.153,-326.939C216.525,-319.252 194.01,-310.419 191,-306 152.101,-248.904 180.289,-162.326 198.61,-119.254"/>
<ellipse fill="none" stroke="#8c8c02" cx="241.959" cy="-328.275" rx="4.00001" ry="4.00001"/>
<polygon fill="#8c8c02" stroke="#8c8c02" points="198.648,-119.168 206.794,-111.827 200.662,-114.591 202.675,-110.015 202.675,-110.015 202.675,-110.015 200.662,-114.591 198.557,-108.203 198.648,-119.168 198.648,-119.168"/>
</g>
<!-- Comment&#45;&gt;User -->
<g id="edge28" class="edge"><title>Comment&#45;&gt;User</title>
<path fill="none" stroke="#cabb3d" d="M309.251,-319.771C327.786,-306.356 348.695,-291.305 351,-290 366.308,-281.329 384.182,-273.394 399.24,-267.28"/>
<polygon fill="#cabb3d" stroke="#cabb3d" points="309.076,-319.898 298.338,-322.12 305.027,-322.832 300.978,-325.765 300.978,-325.765 300.978,-325.765 305.027,-322.832 303.618,-329.409 309.076,-319.898 309.076,-319.898"/>
<polygon fill="#cabb3d" stroke="#cabb3d" points="399.379,-267.225 410.333,-267.718 404.026,-265.38 408.673,-263.535 408.673,-263.535 408.673,-263.535 404.026,-265.38 407.013,-259.353 399.379,-267.225 399.379,-267.225"/>
<text text-anchor="middle" x="384.5" y="-294.3" font-family="Times,serif" font-size="14.00">notify_users</text>
</g>
<!-- Article&#45;&gt;Ping -->
<g id="edge37" class="edge"><title>Article&#45;&gt;Ping</title>
<path fill="none" stroke="#8f8770" d="M505.597,-429.823C448.584,-429.538 346.192,-424.267 265,-394 246.012,-386.922 227.081,-374.239 212.863,-363.292"/>
<ellipse fill="none" stroke="#8f8770" cx="509.671" cy="-429.828" rx="4" ry="4"/>
<polygon fill="#8f8770" stroke="#8f8770" points="212.486,-362.993 207.463,-353.245 208.574,-359.879 204.661,-356.766 204.661,-356.766 204.661,-356.766 208.574,-359.879 201.859,-360.288 212.486,-362.993 212.486,-362.993"/>
</g>
<!-- Article&#45;&gt;Trackback -->
<g id="edge38" class="edge"><title>Article&#45;&gt;Trackback</title>
<path fill="none" stroke="#b7817a" d="M572.387,-408.684C587.28,-395.746 606.593,-378.97 621.971,-365.611"/>
<ellipse fill="none" stroke="#b7817a" cx="569.264" cy="-411.397" rx="4.00002" ry="4.00002"/>
<polygon fill="#b7817a" stroke="#b7817a" points="622.062,-365.532 632.562,-362.372 625.836,-362.253 629.611,-358.974 629.611,-358.974 629.611,-358.974 625.836,-362.253 626.66,-355.577 622.062,-365.532 622.062,-365.532"/>
</g>
<!-- Article&#45;&gt;Trackback -->
<g id="edge44" class="edge"><title>Article&#45;&gt;Trackback</title>
<path fill="none" stroke="#bdfdc0" d="M582.791,-414.306C593.159,-408.843 604.154,-401.994 613,-394 620.923,-386.839 627.973,-377.545 633.632,-368.856"/>
<ellipse fill="none" stroke="#bdfdc0" cx="578.964" cy="-416.236" rx="4.00002" ry="4.00002"/>
<polygon fill="#bdfdc0" stroke="#bdfdc0" points="633.759,-368.649 642.835,-362.495 636.381,-364.392 639.003,-360.135 639.003,-360.135 639.003,-360.135 636.381,-364.392 635.172,-357.774 633.759,-368.649 633.759,-368.649"/>
<text text-anchor="middle" x="686" y="-382.3" font-family="Times,serif" font-size="14.00">published_trackbacks</text>
</g>
<!-- Article&#45;&gt;Redirection -->
<g id="edge34" class="edge"><title>Article&#45;&gt;Redirection</title>
<path fill="none" stroke="#ad0c15" d="M592.587,-429.613C703.731,-430.012 989,-423.22 989,-343 989,-343 989,-343 989,-91 989,-44.262 660.604,-26.4771 521.298,-21.0353"/>
<ellipse fill="none" stroke="#ad0c15" cx="588.263" cy="-429.59" rx="4" ry="4"/>
<polygon fill="#ad0c15" stroke="#ad0c15" points="521.196,-21.0315 511.375,-16.153 516.2,-20.8406 511.203,-20.6497 511.203,-20.6497 511.203,-20.6497 516.2,-20.8406 511.032,-25.1465 521.196,-21.0315 521.196,-21.0315"/>
</g>
<!-- Article&#45;&gt;Trigger -->
<g id="edge36" class="edge"><title>Article&#45;&gt;Trigger</title>
<path fill="none" stroke="#ce5e12" d="M591.215,-424.49C660.931,-416.102 795.392,-395.641 825,-360 885.339,-287.365 865.02,-238.772 839,-148 834.808,-133.377 823.55,-121.26 811.977,-112.156"/>
<ellipse fill="none" stroke="#ce5e12" cx="587.018" cy="-424.985" rx="4.00001" ry="4.00001"/>
<polygon fill="#ce5e12" stroke="#ce5e12" points="811.683,-111.943 806.235,-102.426 807.637,-109.005 803.591,-106.067 803.591,-106.067 803.591,-106.067 807.637,-109.005 800.947,-109.708 811.683,-111.943 811.683,-111.943"/>
</g>
<!-- Article&#45;&gt;Feedback -->
<g id="edge39" class="edge"><title>Article&#45;&gt;Feedback</title>
<path fill="none" stroke="#cd6e11" d="M505.872,-428.848C398.978,-428.028 128.423,-423.072 101,-394 95.1246,-387.771 93.5447,-378.973 93.8536,-370.434"/>
<ellipse fill="none" stroke="#cd6e11" cx="509.886" cy="-428.876" rx="4" ry="4"/>
<polygon fill="#cd6e11" stroke="#cd6e11" points="93.8719,-370.273 99.4765,-360.847 94.4387,-365.305 95.0055,-360.337 95.0055,-360.337 95.0055,-360.337 94.4387,-365.305 90.5345,-359.827 93.8719,-370.273 93.8719,-370.273"/>
</g>
<!-- Article&#45;&gt;Feedback -->
<g id="edge45" class="edge"><title>Article&#45;&gt;Feedback</title>
<path fill="none" stroke="#1ccc12" d="M505.554,-427.992C402.881,-425.253 151.559,-416.323 121,-394 113.135,-388.255 108.205,-379.023 105.119,-369.983"/>
<ellipse fill="none" stroke="#1ccc12" cx="509.853" cy="-428.104" rx="4" ry="4"/>
<polygon fill="#1ccc12" stroke="#1ccc12" points="105.037,-369.689 106.696,-358.849 103.698,-364.871 102.36,-360.054 102.36,-360.054 102.36,-360.054 103.698,-364.871 98.0241,-361.258 105.037,-369.689 105.037,-369.689"/>
<text text-anchor="middle" x="175.5" y="-382.3" font-family="Times,serif" font-size="14.00">published_feedback</text>
</g>
<!-- Article&#45;&gt;Resource -->
<g id="edge40" class="edge"><title>Article&#45;&gt;Resource</title>
<path fill="none" stroke="#7cf8f4" d="M592.009,-427.319C665.586,-423.921 812.208,-414.719 859,-394 873.069,-387.77 886.179,-376.879 896.362,-366.756"/>
<ellipse fill="none" stroke="#7cf8f4" cx="587.833" cy="-427.507" rx="4" ry="4"/>
<polygon fill="#7cf8f4" stroke="#7cf8f4" points="896.63,-366.476 906.797,-362.367 900.088,-362.866 903.547,-359.255 903.547,-359.255 903.547,-359.255 900.088,-362.866 900.297,-356.142 896.63,-366.476 896.63,-366.476"/>
</g>
<!-- Article&#45;&gt;Categorization -->
<g id="edge41" class="edge"><title>Article&#45;&gt;Categorization</title>
<path fill="none" stroke="#f40f70" d="M592.267,-428.457C690.546,-426.777 927.89,-420.062 1003,-394 1020.9,-387.788 1038.62,-376.297 1052.43,-365.793"/>
<ellipse fill="none" stroke="#f40f70" cx="588.035" cy="-428.527" rx="4" ry="4"/>
<polygon fill="#f40f70" stroke="#f40f70" points="1052.65,-365.626 1063.29,-362.971 1056.57,-362.531 1060.5,-359.437 1060.5,-359.437 1060.5,-359.437 1056.57,-362.531 1057.72,-355.902 1052.65,-365.626 1052.65,-365.626"/>
</g>
<!-- Article&#45;&gt;Redirect -->
<g id="edge35" class="edge"><title>Article&#45;&gt;Redirect</title>
<path fill="none" stroke="#80e9cf" d="M555.346,-402.107C560.957,-373.821 566.977,-328.2 558,-290 542.371,-223.494 500.75,-153.765 477.081,-117.774"/>
<polygon fill="#80e9cf" stroke="#80e9cf" points="555.313,-402.263 548.845,-411.118 554.281,-407.155 553.248,-412.047 553.248,-412.047 553.248,-412.047 554.281,-407.155 557.651,-412.977 555.313,-402.263 555.313,-402.263"/>
<polygon fill="#80e9cf" stroke="#80e9cf" points="477.027,-117.693 475.221,-106.876 474.252,-113.533 471.477,-109.374 471.477,-109.374 471.477,-109.374 474.252,-113.533 467.734,-111.871 477.027,-117.693 477.027,-117.693"/>
</g>
<!-- Article&#45;&gt;Comment -->
<g id="edge42" class="edge"><title>Article&#45;&gt;Comment</title>
<path fill="none" stroke="#f5512e" d="M509.045,-420.586C483.837,-414.627 450.89,-405.629 423,-394 409.771,-388.484 408.16,-383.678 395,-378 373.495,-368.722 348.744,-360.853 327.726,-354.94"/>
<ellipse fill="none" stroke="#f5512e" cx="513.044" cy="-421.511" rx="4.00001" ry="4.00001"/>
<polygon fill="#f5512e" stroke="#f5512e" points="327.691,-354.93 319.241,-347.94 322.87,-353.605 318.049,-352.28 318.049,-352.28 318.049,-352.28 322.87,-353.605 316.856,-356.619 327.691,-354.93 327.691,-354.93"/>
</g>
<!-- Article&#45;&gt;Comment -->
<g id="edge43" class="edge"><title>Article&#45;&gt;Comment</title>
<path fill="none" stroke="#00fdd1" d="M505.962,-426.602C432.437,-422.061 289.066,-411.105 274,-394 268.24,-387.46 267.753,-378.479 269.353,-369.874"/>
<ellipse fill="none" stroke="#00fdd1" cx="510.148" cy="-426.856" rx="4" ry="4"/>
<polygon fill="#00fdd1" stroke="#00fdd1" points="269.382,-369.767 276.342,-361.292 270.69,-364.941 271.998,-360.115 271.998,-360.115 271.998,-360.115 270.69,-364.941 267.655,-358.938 269.382,-369.767 269.382,-369.767"/>
<text text-anchor="middle" x="332.5" y="-382.3" font-family="Times,serif" font-size="14.00">published_comments</text>
</g>
<!-- Article&#45;&gt;Notification -->
<g id="edge32" class="edge"><title>Article&#45;&gt;Notification</title>
<path fill="none" stroke="#7d3e3a" d="M505.884,-428.838C406.878,-427.965 166.022,-422.847 91,-394 67.9328,-385.13 57.893,-382.184 47,-360 2.61132,-269.603 60.732,-223.833 127,-148 139.657,-133.517 157.009,-121.3 172.657,-112.088"/>
<ellipse fill="none" stroke="#7d3e3a" cx="509.891" cy="-428.87" rx="4" ry="4"/>
<polygon fill="#7d3e3a" stroke="#7d3e3a" points="172.92,-111.939 183.84,-110.933 177.273,-109.478 181.625,-107.016 181.625,-107.016 181.625,-107.016 177.273,-109.478 179.41,-103.099 172.92,-111.939 172.92,-111.939"/>
</g>
<!-- Article&#45;&gt;User -->
<g id="edge33" class="edge"><title>Article&#45;&gt;User</title>
<path fill="none" stroke="#1a2fa2" d="M512.632,-414.171C489.662,-402.835 461.49,-384.896 446,-360 431.473,-336.651 429.14,-304.754 429.712,-282.262"/>
<polygon fill="#1a2fa2" stroke="#1a2fa2" points="512.736,-414.22 519.865,-422.553 517.26,-416.351 521.783,-418.482 521.783,-418.482 521.783,-418.482 517.26,-416.351 523.7,-414.411 512.736,-414.22 512.736,-414.22"/>
<polygon fill="#1a2fa2" stroke="#1a2fa2" points="429.722,-282.044 434.681,-272.263 429.954,-277.049 430.186,-272.055 430.186,-272.055 430.186,-272.055 429.954,-277.049 425.691,-271.846 429.722,-282.044 429.722,-282.044"/>
<text text-anchor="middle" x="479.5" y="-338.3" font-family="Times,serif" font-size="14.00">notify_users</text>
</g>
<!-- EmailNotifier -->
<g id="node28" class="node"><title>EmailNotifier</title>
<polygon fill="none" stroke="black" points="2314,-543 2222,-543 2222,-507 2314,-507 2314,-543"/>
<text text-anchor="middle" x="2268" y="-521.3" font-family="Times,serif" font-size="14.00">EmailNotifier</text>
</g>
<!-- TextFilter -->
<g id="node31" class="node"><title>TextFilter</title>
<ellipse fill="none" stroke="black" cx="2378" cy="-525" rx="46.2191" ry="18"/>
<text text-anchor="middle" x="2378" y="-521.3" font-family="Times,serif" font-size="14.00">TextFilter</text>
</g>
<!-- User&#45;&gt;Content -->
<g id="edge47" class="edge"><title>User&#45;&gt;Content</title>
<path fill="none" stroke="#4ead98" d="M421.897,-226.649C418.465,-218.566 414.38,-209.762 410,-202 408.033,-198.515 405.794,-194.955 403.483,-191.504"/>
<polygon fill="#4ead98" stroke="#4ead98" points="421.949,-226.776 421.57,-237.736 423.842,-231.404 425.735,-236.032 425.735,-236.032 425.735,-236.032 423.842,-231.404 429.9,-234.328 421.949,-226.776 421.949,-226.776"/>
<polygon fill="#4ead98" stroke="#4ead98" points="403.443,-191.446 401.39,-180.674 400.574,-187.351 397.704,-183.257 397.704,-183.257 397.704,-183.257 400.574,-187.351 394.019,-185.839 403.443,-191.446 403.443,-191.446"/>
<text text-anchor="middle" x="460.5" y="-206.3" font-family="Times,serif" font-size="14.00">notify_contents</text>
</g>
<!-- User&#45;&gt;Article -->
<g id="edge48" class="edge"><title>User&#45;&gt;Article</title>
<path fill="none" stroke="#4f0d50" d="M450.095,-276.543C458.843,-286.216 469.851,-297.367 481,-306 493.902,-315.99 502.558,-311.46 513,-324 531.629,-346.373 540.808,-378.907 545.203,-401.817"/>
<ellipse fill="none" stroke="#4f0d50" cx="447.344" cy="-273.437" rx="4.00002" ry="4.00002"/>
<polygon fill="#4f0d50" stroke="#4f0d50" points="545.243,-402.047 542.516,-412.668 546.096,-406.973 546.95,-411.9 546.95,-411.9 546.95,-411.9 546.096,-406.973 551.384,-411.132 545.243,-402.047 545.243,-402.047"/>
</g>
<!-- User&#45;&gt;Notification -->
<g id="edge46" class="edge"><title>User&#45;&gt;Notification</title>
<path fill="none" stroke="#b20325" d="M399.009,-244.65C379.957,-238.923 356.068,-230.147 337,-218 293.665,-190.394 253.325,-145.716 230.464,-117.92"/>
<ellipse fill="none" stroke="#b20325" cx="403.008" cy="-245.806" rx="4.00001" ry="4.00001"/>
<polygon fill="#b20325" stroke="#b20325" points="230.24,-117.644 227.443,-107.04 227.093,-113.758 223.947,-109.873 223.947,-109.873 223.947,-109.873 227.093,-113.758 220.45,-112.705 230.24,-117.644 230.24,-117.644"/>
</g>
</g>
</svg>
