<?xml version="1.0" encoding="UTF-8" standalone="no"?>
<!DOCTYPE svg PUBLIC "-//W3C//DTD SVG 1.1//EN"
 "http://www.w3.org/Graphics/SVG/1.1/DTD/svg11.dtd">
<!-- Generated by graphviz version 2.36.0 (20140111.2315)
 -->
<!-- Title: models_diagram Pages: 1 -->
<svg width="3116pt" height="2008pt"
 viewBox="0.00 0.00 3116.47 2008.00" xmlns="http://www.w3.org/2000/svg" xmlns:xlink="http://www.w3.org/1999/xlink">
<g id="graph0" class="graph" transform="scale(1 1) rotate(0) translate(4 2004)">
<title>models_diagram</title>
<polygon fill="none" stroke="none" points="-4,4 -4,-2004 3112.47,-2004 3112.47,4 -4,4"/>
<!-- _diagram_info -->
<g id="node1" class="node"><title>_diagram_info</title>
<text text-anchor="start" x="415.467" y="-1955.6" font-family="Times,serif" font-size="13.00">Models diagram</text>
<text text-anchor="start" x="415.467" y="-1941.6" font-family="Times,serif" font-size="13.00">Date: Jan 28 2016 &#45; 07:47</text>
<text text-anchor="start" x="415.467" y="-1927.6" font-family="Times,serif" font-size="13.00">Migration version: 104</text>
<text text-anchor="start" x="415.467" y="-1913.6" font-family="Times,serif" font-size="13.00">Generated by RailRoady 1.4.2</text>
<text text-anchor="start" x="415.467" y="-1899.6" font-family="Times,serif" font-size="13.00">http://railroady.prestonlee.com</text>
</g>
<!-- Tag -->
<g id="node2" class="node"><title>Tag</title>
<path fill="none" stroke="black" d="M619.467,-1878C619.467,-1878 765.467,-1878 765.467,-1878 771.467,-1878 777.467,-1884 777.467,-1890 777.467,-1890 777.467,-1972 777.467,-1972 777.467,-1978 771.467,-1984 765.467,-1984 765.467,-1984 619.467,-1984 619.467,-1984 613.467,-1984 607.467,-1978 607.467,-1972 607.467,-1972 607.467,-1890 607.467,-1890 607.467,-1884 613.467,-1878 619.467,-1878"/>
<text text-anchor="middle" x="692.467" y="-1968.8" font-family="Times,serif" font-size="14.00">Tag</text>
<polyline fill="none" stroke="black" points="607.467,-1961 777.467,-1961 "/>
<text text-anchor="start" x="615.467" y="-1945.8" font-family="Times,serif" font-size="14.00">id :INTEGER</text>
<text text-anchor="start" x="615.467" y="-1930.8" font-family="Times,serif" font-size="14.00">name :varchar(255)</text>
<text text-anchor="start" x="615.467" y="-1915.8" font-family="Times,serif" font-size="14.00">created_at :datetime</text>
<text text-anchor="start" x="615.467" y="-1900.8" font-family="Times,serif" font-size="14.00">updated_at :datetime</text>
<text text-anchor="start" x="615.467" y="-1885.8" font-family="Times,serif" font-size="14.00">display_name :varchar(255)</text>
</g>
<!-- Article -->
<g id="node27" class="node"><title>Article</title>
<path fill="none" stroke="black" d="M623.967,-1447C623.967,-1447 760.967,-1447 760.967,-1447 766.967,-1447 772.967,-1453 772.967,-1459 772.967,-1459 772.967,-1811 772.967,-1811 772.967,-1817 766.967,-1823 760.967,-1823 760.967,-1823 623.967,-1823 623.967,-1823 617.967,-1823 611.967,-1817 611.967,-1811 611.967,-1811 611.967,-1459 611.967,-1459 611.967,-1453 617.967,-1447 623.967,-1447"/>
<text text-anchor="middle" x="692.467" y="-1807.8" font-family="Times,serif" font-size="14.00">Article</text>
<polyline fill="none" stroke="black" points="611.967,-1800 772.967,-1800 "/>
<text text-anchor="start" x="619.967" y="-1784.8" font-family="Times,serif" font-size="14.00">id :INTEGER</text>
<text text-anchor="start" x="619.967" y="-1769.8" font-family="Times,serif" font-size="14.00">type :varchar(255)</text>
<text text-anchor="start" x="619.967" y="-1754.8" font-family="Times,serif" font-size="14.00">title :varchar(255)</text>
<text text-anchor="start" x="619.967" y="-1739.8" font-family="Times,serif" font-size="14.00">author :varchar(255)</text>
<text text-anchor="start" x="619.967" y="-1724.8" font-family="Times,serif" font-size="14.00">body :text</text>
<text text-anchor="start" x="619.967" y="-1709.8" font-family="Times,serif" font-size="14.00">extended :text</text>
<text text-anchor="start" x="619.967" y="-1694.8" font-family="Times,serif" font-size="14.00">excerpt :text</text>
<text text-anchor="start" x="619.967" y="-1679.8" font-family="Times,serif" font-size="14.00">created_at :datetime</text>
<text text-anchor="start" x="619.967" y="-1664.8" font-family="Times,serif" font-size="14.00">updated_at :datetime</text>
<text text-anchor="start" x="619.967" y="-1649.8" font-family="Times,serif" font-size="14.00">user_id :integer</text>
<text text-anchor="start" x="619.967" y="-1634.8" font-family="Times,serif" font-size="14.00">permalink :varchar(255)</text>
<text text-anchor="start" x="619.967" y="-1619.8" font-family="Times,serif" font-size="14.00">guid :varchar(255)</text>
<text text-anchor="start" x="619.967" y="-1604.8" font-family="Times,serif" font-size="14.00">text_filter_id :integer</text>
<text text-anchor="start" x="619.967" y="-1589.8" font-family="Times,serif" font-size="14.00">whiteboard :text</text>
<text text-anchor="start" x="619.967" y="-1574.8" font-family="Times,serif" font-size="14.00">name :varchar(255)</text>
<text text-anchor="start" x="619.967" y="-1559.8" font-family="Times,serif" font-size="14.00">published :boolean</text>
<text text-anchor="start" x="619.967" y="-1544.8" font-family="Times,serif" font-size="14.00">allow_pings :boolean</text>
<text text-anchor="start" x="619.967" y="-1529.8" font-family="Times,serif" font-size="14.00">allow_comments :boolean</text>
<text text-anchor="start" x="619.967" y="-1514.8" font-family="Times,serif" font-size="14.00">published_at :datetime</text>
<text text-anchor="start" x="619.967" y="-1499.8" font-family="Times,serif" font-size="14.00">state :varchar(255)</text>
<text text-anchor="start" x="619.967" y="-1484.8" font-family="Times,serif" font-size="14.00">parent_id :integer</text>
<text text-anchor="start" x="619.967" y="-1469.8" font-family="Times,serif" font-size="14.00">settings :text</text>
<text text-anchor="start" x="619.967" y="-1454.8" font-family="Times,serif" font-size="14.00">post_type :varchar(255)</text>
</g>
<!-- Tag&#45;&gt;Article -->
<g id="edge1" class="edge"><title>Tag&#45;&gt;Article</title>
<path fill="none" stroke="#75ae98" d="M692.467,-1867.66C692.467,-1857.02 692.467,-1845.48 692.467,-1833.42"/>
<polygon fill="#75ae98" stroke="#75ae98" points="692.467,-1867.78 687.967,-1877.78 692.467,-1872.78 692.467,-1877.78 692.467,-1877.78 692.467,-1877.78 692.467,-1872.78 696.967,-1877.78 692.467,-1867.78 692.467,-1867.78"/>
<polygon fill="#75ae98" stroke="#75ae98" points="692.467,-1833.18 696.967,-1823.18 692.467,-1828.18 692.467,-1823.18 692.467,-1823.18 692.467,-1823.18 692.467,-1828.18 687.967,-1823.18 692.467,-1833.18 692.467,-1833.18"/>
</g>
<!-- WebNotifier -->
<g id="node3" class="node"><title>WebNotifier</title>
<polygon fill="none" stroke="black" points="1299.47,-1908 1299.47,-1954 1385.47,-1954 1385.47,-1908 1299.47,-1908"/>
<text text-anchor="middle" x="1342.47" y="-1938.8" font-family="Times,serif" font-size="14.00">WebNotifier</text>
<polyline fill="none" stroke="black" points="1299.47,-1931 1385.47,-1931 "/>
<text text-anchor="middle" x="1342.47" y="-1915.8" font-family="Times,serif" font-size="14.00"> </text>
</g>
<!-- NotificationMailer -->
<g id="node4" class="node"><title>NotificationMailer</title>
<polygon fill="none" stroke="black" points="1403.97,-1908 1403.97,-1954 1522.97,-1954 1522.97,-1908 1403.97,-1908"/>
<text text-anchor="middle" x="1463.47" y="-1938.8" font-family="Times,serif" font-size="14.00">NotificationMailer</text>
<polyline fill="none" stroke="black" points="1403.97,-1931 1522.97,-1931 "/>
<text text-anchor="middle" x="1463.47" y="-1915.8" font-family="Times,serif" font-size="14.00"> </text>
</g>
<!-- Feedback::States -->
<g id="node5" class="node"><title>Feedback::States</title>
<polygon fill="none" stroke="black" stroke-dasharray="1,5" points="1649.47,-1949 1541.47,-1949 1541.47,-1913 1649.47,-1913 1649.47,-1949"/>
<text text-anchor="middle" x="1595.47" y="-1927.3" font-family="Times,serif" font-size="14.00">Feedback::States</text>
</g>
<!-- Content -->
<g id="node6" class="node"><title>Content</title>
<path fill="none" stroke="black" d="M469.967,-277C469.967,-277 606.967,-277 606.967,-277 612.967,-277 618.967,-283 618.967,-289 618.967,-289 618.967,-641 618.967,-641 618.967,-647 612.967,-653 606.967,-653 606.967,-653 469.967,-653 469.967,-653 463.967,-653 457.967,-647 457.967,-641 457.967,-641 457.967,-289 457.967,-289 457.967,-283 463.967,-277 469.967,-277"/>
<text text-anchor="middle" x="538.467" y="-637.8" font-family="Times,serif" font-size="14.00">Content</text>
<polyline fill="none" stroke="black" points="457.967,-630 618.967,-630 "/>
<text text-anchor="start" x="465.967" y="-614.8" font-family="Times,serif" font-size="14.00">id :INTEGER</text>
<text text-anchor="start" x="465.967" y="-599.8" font-family="Times,serif" font-size="14.00">type :varchar(255)</text>
<text text-anchor="start" x="465.967" y="-584.8" font-family="Times,serif" font-size="14.00">title :varchar(255)</text>
<text text-anchor="start" x="465.967" y="-569.8" font-family="Times,serif" font-size="14.00">author :varchar(255)</text>
<text text-anchor="start" x="465.967" y="-554.8" font-family="Times,serif" font-size="14.00">body :text</text>
<text text-anchor="start" x="465.967" y="-539.8" font-family="Times,serif" font-size="14.00">extended :text</text>
<text text-anchor="start" x="465.967" y="-524.8" font-family="Times,serif" font-size="14.00">excerpt :text</text>
<text text-anchor="start" x="465.967" y="-509.8" font-family="Times,serif" font-size="14.00">created_at :datetime</text>
<text text-anchor="start" x="465.967" y="-494.8" font-family="Times,serif" font-size="14.00">updated_at :datetime</text>
<text text-anchor="start" x="465.967" y="-479.8" font-family="Times,serif" font-size="14.00">user_id :integer</text>
<text text-anchor="start" x="465.967" y="-464.8" font-family="Times,serif" font-size="14.00">permalink :varchar(255)</text>
<text text-anchor="start" x="465.967" y="-449.8" font-family="Times,serif" font-size="14.00">guid :varchar(255)</text>
<text text-anchor="start" x="465.967" y="-434.8" font-family="Times,serif" font-size="14.00">text_filter_id :integer</text>
<text text-anchor="start" x="465.967" y="-419.8" font-family="Times,serif" font-size="14.00">whiteboard :text</text>
<text text-anchor="start" x="465.967" y="-404.8" font-family="Times,serif" font-size="14.00">name :varchar(255)</text>
<text text-anchor="start" x="465.967" y="-389.8" font-family="Times,serif" font-size="14.00">published :boolean</text>
<text text-anchor="start" x="465.967" y="-374.8" font-family="Times,serif" font-size="14.00">allow_pings :boolean</text>
<text text-anchor="start" x="465.967" y="-359.8" font-family="Times,serif" font-size="14.00">allow_comments :boolean</text>
<text text-anchor="start" x="465.967" y="-344.8" font-family="Times,serif" font-size="14.00">published_at :datetime</text>
<text text-anchor="start" x="465.967" y="-329.8" font-family="Times,serif" font-size="14.00">state :varchar(255)</text>
<text text-anchor="start" x="465.967" y="-314.8" font-family="Times,serif" font-size="14.00">parent_id :integer</text>
<text text-anchor="start" x="465.967" y="-299.8" font-family="Times,serif" font-size="14.00">settings :text</text>
<text text-anchor="start" x="465.967" y="-284.8" font-family="Times,serif" font-size="14.00">post_type :varchar(255)</text>
</g>
<!-- Redirection -->
<g id="node13" class="node"><title>Redirection</title>
<path fill="none" stroke="black" d="M491.467,-1C491.467,-1 587.467,-1 587.467,-1 593.467,-1 599.467,-7 599.467,-13 599.467,-13 599.467,-65 599.467,-65 599.467,-71 593.467,-77 587.467,-77 587.467,-77 491.467,-77 491.467,-77 485.467,-77 479.467,-71 479.467,-65 479.467,-65 479.467,-13 479.467,-13 479.467,-7 485.467,-1 491.467,-1"/>
<text text-anchor="middle" x="539.467" y="-61.8" font-family="Times,serif" font-size="14.00">Redirection</text>
<polyline fill="none" stroke="black" points="479.467,-54 599.467,-54 "/>
<text text-anchor="start" x="487.467" y="-38.8" font-family="Times,serif" font-size="14.00">id :INTEGER</text>
<text text-anchor="start" x="487.467" y="-23.8" font-family="Times,serif" font-size="14.00">content_id :integer</text>
<text text-anchor="start" x="487.467" y="-8.8" font-family="Times,serif" font-size="14.00">redirect_id :integer</text>
</g>
<!-- Content&#45;&gt;Redirection -->
<g id="edge4" class="edge"><title>Content&#45;&gt;Redirection</title>
<path fill="none" stroke="#cec5f7" d="M455.3,-299.143C436.534,-239.827 428.782,-173.419 454.467,-116 459.749,-104.192 467.872,-93.461 477.042,-84.0256"/>
<ellipse fill="none" stroke="#cec5f7" cx="456.651" cy="-303.286" rx="4.00001" ry="4.00001"/>
<polygon fill="#cec5f7" stroke="#cec5f7" points="477.045,-84.023 487.359,-80.2995 480.637,-80.5448 484.229,-77.0667 484.229,-77.0667 484.229,-77.0667 480.637,-80.5448 481.099,-73.8339 477.045,-84.023 477.045,-84.023"/>
</g>
<!-- Trigger -->
<g id="node16" class="node"><title>Trigger</title>
<path fill="none" stroke="black" d="M845.967,-124C845.967,-124 1020.97,-124 1020.97,-124 1026.97,-124 1032.97,-130 1032.97,-136 1032.97,-136 1032.97,-218 1032.97,-218 1032.97,-224 1026.97,-230 1020.97,-230 1020.97,-230 845.967,-230 845.967,-230 839.967,-230 833.967,-224 833.967,-218 833.967,-218 833.967,-136 833.967,-136 833.967,-130 839.967,-124 845.967,-124"/>
<text text-anchor="middle" x="933.467" y="-214.8" font-family="Times,serif" font-size="14.00">Trigger</text>
<polyline fill="none" stroke="black" points="833.967,-207 1032.97,-207 "/>
<text text-anchor="start" x="841.967" y="-191.8" font-family="Times,serif" font-size="14.00">id :INTEGER</text>
<text text-anchor="start" x="841.967" y="-176.8" font-family="Times,serif" font-size="14.00">pending_item_id :integer</text>
<text text-anchor="start" x="841.967" y="-161.8" font-family="Times,serif" font-size="14.00">pending_item_type :varchar(255)</text>
<text text-anchor="start" x="841.967" y="-146.8" font-family="Times,serif" font-size="14.00">due_at :datetime</text>
<text text-anchor="start" x="841.967" y="-131.8" font-family="Times,serif" font-size="14.00">trigger_method :varchar(255)</text>
</g>
<!-- Content&#45;&gt;Trigger -->
<g id="edge6" class="edge"><title>Content&#45;&gt;Trigger</title>
<path fill="none" stroke="#44ee8d" d="M625.59,-398.949C674.681,-362.501 737.252,-316.388 793.467,-276 811.727,-262.881 831.445,-248.941 850.158,-235.815"/>
<ellipse fill="none" stroke="#44ee8d" cx="622.272" cy="-401.413" rx="4.00002" ry="4.00002"/>
<polygon fill="#44ee8d" stroke="#44ee8d" points="850.201,-235.785 860.973,-233.733 854.296,-232.916 858.391,-230.047 858.391,-230.047 858.391,-230.047 854.296,-232.916 855.809,-226.362 850.201,-235.785 850.201,-235.785"/>
</g>
<!-- Redirect -->
<g id="node24" class="node"><title>Redirect</title>
<path fill="none" stroke="black" d="M475.967,-116.5C475.967,-116.5 602.967,-116.5 602.967,-116.5 608.967,-116.5 614.967,-122.5 614.967,-128.5 614.967,-128.5 614.967,-225.5 614.967,-225.5 614.967,-231.5 608.967,-237.5 602.967,-237.5 602.967,-237.5 475.967,-237.5 475.967,-237.5 469.967,-237.5 463.967,-231.5 463.967,-225.5 463.967,-225.5 463.967,-128.5 463.967,-128.5 463.967,-122.5 469.967,-116.5 475.967,-116.5"/>
<text text-anchor="middle" x="539.467" y="-222.3" font-family="Times,serif" font-size="14.00">Redirect</text>
<polyline fill="none" stroke="black" points="463.967,-214.5 614.967,-214.5 "/>
<text text-anchor="start" x="471.967" y="-199.3" font-family="Times,serif" font-size="14.00">id :INTEGER</text>
<text text-anchor="start" x="471.967" y="-184.3" font-family="Times,serif" font-size="14.00">from_path :varchar(255)</text>
<text text-anchor="start" x="471.967" y="-169.3" font-family="Times,serif" font-size="14.00">to_path :varchar(255)</text>
<text text-anchor="start" x="471.967" y="-154.3" font-family="Times,serif" font-size="14.00">origin :varchar(255)</text>
<text text-anchor="start" x="471.967" y="-139.3" font-family="Times,serif" font-size="14.00">created_at :datetime</text>
<text text-anchor="start" x="471.967" y="-124.3" font-family="Times,serif" font-size="14.00">updated_at :datetime</text>
</g>
<!-- Content&#45;&gt;Redirect -->
<g id="edge5" class="edge"><title>Content&#45;&gt;Redirect</title>
<path fill="none" stroke="#096bad" d="M539.157,-266.57C539.179,-260.244 539.201,-254.085 539.221,-248.154"/>
<polygon fill="#096bad" stroke="#096bad" points="539.156,-266.826 534.621,-276.81 539.139,-271.825 539.121,-276.825 539.121,-276.825 539.121,-276.825 539.139,-271.825 543.621,-276.841 539.156,-266.826 539.156,-266.826"/>
<polygon fill="#096bad" stroke="#096bad" points="539.223,-247.738 543.758,-237.754 539.24,-242.738 539.258,-237.738 539.258,-237.738 539.258,-237.738 539.24,-242.738 534.758,-237.722 539.223,-247.738 539.223,-247.738"/>
</g>
<!-- Notification -->
<g id="node30" class="node"><title>Notification</title>
<path fill="none" stroke="black" d="M272.967,-124C272.967,-124 379.967,-124 379.967,-124 385.967,-124 391.967,-130 391.967,-136 391.967,-136 391.967,-218 391.967,-218 391.967,-224 385.967,-230 379.967,-230 379.967,-230 272.967,-230 272.967,-230 266.967,-230 260.967,-224 260.967,-218 260.967,-218 260.967,-136 260.967,-136 260.967,-130 266.967,-124 272.967,-124"/>
<text text-anchor="middle" x="326.467" y="-214.8" font-family="Times,serif" font-size="14.00">Notification</text>
<polyline fill="none" stroke="black" points="260.967,-207 391.967,-207 "/>
<text text-anchor="start" x="268.967" y="-191.8" font-family="Times,serif" font-size="14.00">id :INTEGER</text>
<text text-anchor="start" x="268.967" y="-176.8" font-family="Times,serif" font-size="14.00">content_id :integer</text>
<text text-anchor="start" x="268.967" y="-161.8" font-family="Times,serif" font-size="14.00">user_id :integer</text>
<text text-anchor="start" x="268.967" y="-146.8" font-family="Times,serif" font-size="14.00">created_at :datetime</text>
<text text-anchor="start" x="268.967" y="-131.8" font-family="Times,serif" font-size="14.00">updated_at :datetime</text>
</g>
<!-- Content&#45;&gt;Notification -->
<g id="edge2" class="edge"><title>Content&#45;&gt;Notification</title>
<path fill="none" stroke="#2f2974" d="M452.864,-346.868C435.576,-323.357 417.485,-298.857 400.467,-276 391.328,-263.726 381.497,-250.63 372.08,-238.139"/>
<ellipse fill="none" stroke="#2f2974" cx="455.349" cy="-350.248" rx="4.00002" ry="4.00002"/>
<polygon fill="#2f2974" stroke="#2f2974" points="371.986,-238.015 369.554,-227.322 368.974,-234.024 365.962,-230.033 365.962,-230.033 365.962,-230.033 368.974,-234.024 362.37,-232.743 371.986,-238.015 371.986,-238.015"/>
</g>
<!-- User -->
<g id="node32" class="node"><title>User</title>
<path fill="none" stroke="black" d="M464.967,-707C464.967,-707 667.967,-707 667.967,-707 673.967,-707 679.967,-713 679.967,-719 679.967,-719 679.967,-951 679.967,-951 679.967,-957 673.967,-963 667.967,-963 667.967,-963 464.967,-963 464.967,-963 458.967,-963 452.967,-957 452.967,-951 452.967,-951 452.967,-719 452.967,-719 452.967,-713 458.967,-707 464.967,-707"/>
<text text-anchor="middle" x="566.467" y="-947.8" font-family="Times,serif" font-size="14.00">User</text>
<polyline fill="none" stroke="black" points="452.967,-940 679.967,-940 "/>
<text text-anchor="start" x="460.967" y="-924.8" font-family="Times,serif" font-size="14.00">id :INTEGER</text>
<text text-anchor="start" x="460.967" y="-909.8" font-family="Times,serif" font-size="14.00">login :varchar(255)</text>
<text text-anchor="start" x="460.967" y="-894.8" font-family="Times,serif" font-size="14.00">password :varchar(255)</text>
<text text-anchor="start" x="460.967" y="-879.8" font-family="Times,serif" font-size="14.00">email :text</text>
<text text-anchor="start" x="460.967" y="-864.8" font-family="Times,serif" font-size="14.00">name :text</text>
<text text-anchor="start" x="460.967" y="-849.8" font-family="Times,serif" font-size="14.00">notify_via_email :boolean</text>
<text text-anchor="start" x="460.967" y="-834.8" font-family="Times,serif" font-size="14.00">notify_on_new_articles :boolean</text>
<text text-anchor="start" x="460.967" y="-819.8" font-family="Times,serif" font-size="14.00">notify_on_comments :boolean</text>
<text text-anchor="start" x="460.967" y="-804.8" font-family="Times,serif" font-size="14.00">profile_id :integer</text>
<text text-anchor="start" x="460.967" y="-789.8" font-family="Times,serif" font-size="14.00">remember_token :varchar(255)</text>
<text text-anchor="start" x="460.967" y="-774.8" font-family="Times,serif" font-size="14.00">remember_token_expires_at :datetime</text>
<text text-anchor="start" x="460.967" y="-759.8" font-family="Times,serif" font-size="14.00">text_filter_id :varchar(255)</text>
<text text-anchor="start" x="460.967" y="-744.8" font-family="Times,serif" font-size="14.00">state :varchar(255)</text>
<text text-anchor="start" x="460.967" y="-729.8" font-family="Times,serif" font-size="14.00">last_connection :datetime</text>
<text text-anchor="start" x="460.967" y="-714.8" font-family="Times,serif" font-size="14.00">settings :text</text>
</g>
<!-- Content&#45;&gt;User -->
<g id="edge3" class="edge"><title>Content&#45;&gt;User</title>
<path fill="none" stroke="#3d4517" d="M474.975,-663.384C475.786,-671.704 477.246,-679.936 479.467,-688 480.301,-691.031 481.217,-694.063 482.206,-697.091"/>
<polygon fill="#3d4517" stroke="#3d4517" points="474.962,-663.177 478.792,-652.902 474.632,-658.188 474.302,-653.199 474.302,-653.199 474.302,-653.199 474.632,-658.188 469.812,-653.496 474.962,-663.177 474.962,-663.177"/>
<polygon fill="#3d4517" stroke="#3d4517" points="482.282,-697.304 481.359,-708.231 483.942,-702.02 485.603,-706.736 485.603,-706.736 485.603,-706.736 483.942,-702.02 489.848,-705.242 482.282,-697.304 482.282,-697.304"/>
<text text-anchor="middle" x="512.967" y="-676.3" font-family="Times,serif" font-size="14.00">notify_users</text>
</g>
<!-- BlogSweeper -->
<g id="node7" class="node"><title>BlogSweeper</title>
<polygon fill="none" stroke="black" points="1667.97,-1908 1667.97,-1954 1756.97,-1954 1756.97,-1908 1667.97,-1908"/>
<text text-anchor="middle" x="1712.47" y="-1938.8" font-family="Times,serif" font-size="14.00">BlogSweeper</text>
<polyline fill="none" stroke="black" points="1667.97,-1931 1756.97,-1931 "/>
<text text-anchor="middle" x="1712.47" y="-1915.8" font-family="Times,serif" font-size="14.00"> </text>
</g>
<!-- Ping -->
<g id="node8" class="node"><title>Ping</title>
<path fill="none" stroke="black" d="M247.967,-1159.5C247.967,-1159.5 350.967,-1159.5 350.967,-1159.5 356.967,-1159.5 362.967,-1165.5 362.967,-1171.5 362.967,-1171.5 362.967,-1238.5 362.967,-1238.5 362.967,-1244.5 356.967,-1250.5 350.967,-1250.5 350.967,-1250.5 247.967,-1250.5 247.967,-1250.5 241.967,-1250.5 235.967,-1244.5 235.967,-1238.5 235.967,-1238.5 235.967,-1171.5 235.967,-1171.5 235.967,-1165.5 241.967,-1159.5 247.967,-1159.5"/>
<text text-anchor="middle" x="299.467" y="-1235.3" font-family="Times,serif" font-size="14.00">Ping</text>
<polyline fill="none" stroke="black" points="235.967,-1227.5 362.967,-1227.5 "/>
<text text-anchor="start" x="243.967" y="-1212.3" font-family="Times,serif" font-size="14.00">id :INTEGER</text>
<text text-anchor="start" x="243.967" y="-1197.3" font-family="Times,serif" font-size="14.00">article_id :integer</text>
<text text-anchor="start" x="243.967" y="-1182.3" font-family="Times,serif" font-size="14.00">url :varchar(255)</text>
<text text-anchor="start" x="243.967" y="-1167.3" font-family="Times,serif" font-size="14.00">created_at :datetime</text>
</g>
<!-- Sidebar -->
<g id="node9" class="node"><title>Sidebar</title>
<path fill="none" stroke="black" d="M1787.47,-1878C1787.47,-1878 1909.47,-1878 1909.47,-1878 1915.47,-1878 1921.47,-1884 1921.47,-1890 1921.47,-1890 1921.47,-1972 1921.47,-1972 1921.47,-1978 1915.47,-1984 1909.47,-1984 1909.47,-1984 1787.47,-1984 1787.47,-1984 1781.47,-1984 1775.47,-1978 1775.47,-1972 1775.47,-1972 1775.47,-1890 1775.47,-1890 1775.47,-1884 1781.47,-1878 1787.47,-1878"/>
<text text-anchor="middle" x="1848.47" y="-1968.8" font-family="Times,serif" font-size="14.00">Sidebar</text>
<polyline fill="none" stroke="black" points="1775.47,-1961 1921.47,-1961 "/>
<text text-anchor="start" x="1783.47" y="-1945.8" font-family="Times,serif" font-size="14.00">id :INTEGER</text>
<text text-anchor="start" x="1783.47" y="-1930.8" font-family="Times,serif" font-size="14.00">active_position :integer</text>
<text text-anchor="start" x="1783.47" y="-1915.8" font-family="Times,serif" font-size="14.00">config :text</text>
<text text-anchor="start" x="1783.47" y="-1900.8" font-family="Times,serif" font-size="14.00">staged_position :integer</text>
<text text-anchor="start" x="1783.47" y="-1885.8" font-family="Times,serif" font-size="14.00">type :varchar(255)</text>
</g>
<!-- Trackback -->
<g id="node10" class="node"><title>Trackback</title>
<path fill="none" stroke="black" d="M751.967,-1032C751.967,-1032 888.967,-1032 888.967,-1032 894.967,-1032 900.967,-1038 900.967,-1044 900.967,-1044 900.967,-1366 900.967,-1366 900.967,-1372 894.967,-1378 888.967,-1378 888.967,-1378 751.967,-1378 751.967,-1378 745.967,-1378 739.967,-1372 739.967,-1366 739.967,-1366 739.967,-1044 739.967,-1044 739.967,-1038 745.967,-1032 751.967,-1032"/>
<text text-anchor="middle" x="820.467" y="-1362.8" font-family="Times,serif" font-size="14.00">Trackback</text>
<polyline fill="none" stroke="black" points="739.967,-1355 900.967,-1355 "/>
<text text-anchor="start" x="747.967" y="-1339.8" font-family="Times,serif" font-size="14.00">id :INTEGER</text>
<text text-anchor="start" x="747.967" y="-1324.8" font-family="Times,serif" font-size="14.00">type :varchar(255)</text>
<text text-anchor="start" x="747.967" y="-1309.8" font-family="Times,serif" font-size="14.00">title :varchar(255)</text>
<text text-anchor="start" x="747.967" y="-1294.8" font-family="Times,serif" font-size="14.00">author :varchar(255)</text>
<text text-anchor="start" x="747.967" y="-1279.8" font-family="Times,serif" font-size="14.00">body :text</text>
<text text-anchor="start" x="747.967" y="-1264.8" font-family="Times,serif" font-size="14.00">excerpt :text</text>
<text text-anchor="start" x="747.967" y="-1249.8" font-family="Times,serif" font-size="14.00">created_at :datetime</text>
<text text-anchor="start" x="747.967" y="-1234.8" font-family="Times,serif" font-size="14.00">updated_at :datetime</text>
<text text-anchor="start" x="747.967" y="-1219.8" font-family="Times,serif" font-size="14.00">user_id :integer</text>
<text text-anchor="start" x="747.967" y="-1204.8" font-family="Times,serif" font-size="14.00">guid :varchar(255)</text>
<text text-anchor="start" x="747.967" y="-1189.8" font-family="Times,serif" font-size="14.00">text_filter_id :integer</text>
<text text-anchor="start" x="747.967" y="-1174.8" font-family="Times,serif" font-size="14.00">whiteboard :text</text>
<text text-anchor="start" x="747.967" y="-1159.8" font-family="Times,serif" font-size="14.00">article_id :integer</text>
<text text-anchor="start" x="747.967" y="-1144.8" font-family="Times,serif" font-size="14.00">email :varchar(255)</text>
<text text-anchor="start" x="747.967" y="-1129.8" font-family="Times,serif" font-size="14.00">url :varchar(255)</text>
<text text-anchor="start" x="747.967" y="-1114.8" font-family="Times,serif" font-size="14.00">ip :varchar(40)</text>
<text text-anchor="start" x="747.967" y="-1099.8" font-family="Times,serif" font-size="14.00">blog_name :varchar(255)</text>
<text text-anchor="start" x="747.967" y="-1084.8" font-family="Times,serif" font-size="14.00">published :boolean</text>
<text text-anchor="start" x="747.967" y="-1069.8" font-family="Times,serif" font-size="14.00">published_at :datetime</text>
<text text-anchor="start" x="747.967" y="-1054.8" font-family="Times,serif" font-size="14.00">state :varchar(255)</text>
<text text-anchor="start" x="747.967" y="-1039.8" font-family="Times,serif" font-size="14.00">status_confirmed :boolean</text>
</g>
<!-- Trackback&#45;&gt;Redirection -->
<g id="edge9" class="edge"><title>Trackback&#45;&gt;Redirection</title>
<path fill="none" stroke="#620194" d="M896.488,-1024.14C904.24,-1003.97 911.73,-983.628 918.467,-964 980.285,-783.897 1165.63,-260.371 1041.47,-116 986.612,-52.2153 734.46,-41.2971 609.734,-39.8695"/>
<ellipse fill="none" stroke="#620194" cx="894.947" cy="-1028.12" rx="4.00001" ry="4.00001"/>
<polygon fill="#620194" stroke="#620194" points="609.524,-39.8676 599.568,-35.2709 604.524,-39.8191 599.524,-39.7707 599.524,-39.7707 599.524,-39.7707 604.524,-39.8191 599.48,-44.2704 609.524,-39.8676 609.524,-39.8676"/>
</g>
<!-- Trackback&#45;&gt;Trigger -->
<g id="edge11" class="edge"><title>Trackback&#45;&gt;Trigger</title>
<path fill="none" stroke="#c10815" d="M863.805,-1023.84C865.752,-1015.11 867.65,-1006.46 869.467,-998 902.154,-845.793 920.734,-808.979 935.467,-654 952.207,-477.905 937.734,-432.874 935.467,-256 935.401,-250.883 935.311,-245.577 935.206,-240.249"/>
<ellipse fill="none" stroke="#c10815" cx="862.878" cy="-1027.97" rx="4.00001" ry="4.00001"/>
<polygon fill="#c10815" stroke="#c10815" points="935.201,-240.02 939.485,-229.926 935.094,-235.021 934.986,-230.023 934.986,-230.023 934.986,-230.023 935.094,-235.021 930.487,-230.119 935.201,-240.02 935.201,-240.02"/>
</g>
<!-- Trackback&#45;&gt;Redirect -->
<g id="edge10" class="edge"><title>Trackback&#45;&gt;Redirect</title>
<path fill="none" stroke="#ca0359" d="M845.395,-1021.49C845.623,-1008.14 845.364,-994.866 844.467,-982 833.44,-823.96 836.588,-405.596 745.467,-276 717.247,-235.865 668.1,-211.625 624.888,-197.295"/>
<polygon fill="#ca0359" stroke="#ca0359" points="845.389,-1021.72 840.629,-1031.6 845.258,-1026.72 845.127,-1031.71 845.127,-1031.71 845.127,-1031.71 845.258,-1026.72 849.626,-1031.83 845.389,-1021.72 845.389,-1021.72"/>
<polygon fill="#ca0359" stroke="#ca0359" points="624.726,-197.244 616.562,-189.923 619.962,-195.727 615.197,-194.211 615.197,-194.211 615.197,-194.211 619.962,-195.727 613.833,-198.499 624.726,-197.244 624.726,-197.244"/>
</g>
<!-- Trackback&#45;&gt;Notification -->
<g id="edge7" class="edge"><title>Trackback&#45;&gt;Notification</title>
<path fill="none" stroke="#59d1bf" d="M793.783,-1023.58C754.488,-768.788 680.036,-328.505 627.467,-276 571.768,-220.369 529.01,-263.306 454.467,-238 436.917,-232.042 418.583,-224.378 401.455,-216.533"/>
<ellipse fill="none" stroke="#59d1bf" cx="794.442" cy="-1027.86" rx="4.00001" ry="4.00001"/>
<polygon fill="#59d1bf" stroke="#59d1bf" points="401.141,-216.387 393.975,-208.087 396.608,-214.277 392.076,-212.166 392.076,-212.166 392.076,-212.166 396.608,-214.277 390.176,-216.246 401.141,-216.387 401.141,-216.387"/>
</g>
<!-- Trackback&#45;&gt;User -->
<g id="edge8" class="edge"><title>Trackback&#45;&gt;User</title>
<path fill="none" stroke="#76bacc" d="M733.638,-1069.45C719.178,-1050.68 703.602,-1032.27 687.467,-1016 677.826,-1006.28 671.708,-1008.1 662.467,-998 654.872,-989.697 647.585,-980.699 640.659,-971.342"/>
<polygon fill="#76bacc" stroke="#76bacc" points="733.714,-1069.55 736.182,-1080.24 736.74,-1073.53 739.765,-1077.51 739.765,-1077.51 739.765,-1077.51 736.74,-1073.53 743.348,-1074.79 733.714,-1069.55 733.714,-1069.55"/>
<polygon fill="#76bacc" stroke="#76bacc" points="640.517,-971.145 638.317,-960.403 637.592,-967.09 634.667,-963.035 634.667,-963.035 634.667,-963.035 637.592,-967.09 631.017,-965.668 640.517,-971.145 640.517,-971.145"/>
<text text-anchor="middle" x="695.967" y="-986.3" font-family="Times,serif" font-size="14.00">notify_users</text>
</g>
<!-- Theme -->
<g id="node11" class="node"><title>Theme</title>
<polygon fill="none" stroke="black" points="1939.97,-1908 1939.97,-1954 1994.97,-1954 1994.97,-1908 1939.97,-1908"/>
<text text-anchor="middle" x="1967.47" y="-1938.8" font-family="Times,serif" font-size="14.00">Theme</text>
<polyline fill="none" stroke="black" points="1939.97,-1931 1994.97,-1931 "/>
<text text-anchor="middle" x="1967.47" y="-1915.8" font-family="Times,serif" font-size="14.00"> </text>
</g>
<!-- PageCache -->
<g id="node12" class="node"><title>PageCache</title>
<polygon fill="none" stroke="black" points="2012.97,-1908 2012.97,-1954 2089.97,-1954 2089.97,-1908 2012.97,-1908"/>
<text text-anchor="middle" x="2051.47" y="-1938.8" font-family="Times,serif" font-size="14.00">PageCache</text>
<polyline fill="none" stroke="black" points="2012.97,-1931 2089.97,-1931 "/>
<text text-anchor="middle" x="2051.47" y="-1915.8" font-family="Times,serif" font-size="14.00"> </text>
</g>
<!-- Blog -->
<g id="node14" class="node"><title>Blog</title>
<path fill="none" stroke="black" d="M2120.47,-1893C2120.47,-1893 2236.47,-1893 2236.47,-1893 2242.47,-1893 2248.47,-1899 2248.47,-1905 2248.47,-1905 2248.47,-1957 2248.47,-1957 2248.47,-1963 2242.47,-1969 2236.47,-1969 2236.47,-1969 2120.47,-1969 2120.47,-1969 2114.47,-1969 2108.47,-1963 2108.47,-1957 2108.47,-1957 2108.47,-1905 2108.47,-1905 2108.47,-1899 2114.47,-1893 2120.47,-1893"/>
<text text-anchor="middle" x="2178.47" y="-1953.8" font-family="Times,serif" font-size="14.00">Blog</text>
<polyline fill="none" stroke="black" points="2108.47,-1946 2248.47,-1946 "/>
<text text-anchor="start" x="2116.47" y="-1930.8" font-family="Times,serif" font-size="14.00">id :INTEGER</text>
<text text-anchor="start" x="2116.47" y="-1915.8" font-family="Times,serif" font-size="14.00">settings :text</text>
<text text-anchor="start" x="2116.47" y="-1900.8" font-family="Times,serif" font-size="14.00">base_url :varchar(255)</text>
</g>
<!-- Article::States -->
<g id="node15" class="node"><title>Article::States</title>
<polygon fill="none" stroke="black" stroke-dasharray="1,5" points="2360.47,-1949 2266.47,-1949 2266.47,-1913 2360.47,-1913 2360.47,-1949"/>
<text text-anchor="middle" x="2313.47" y="-1927.3" font-family="Times,serif" font-size="14.00">Article::States</text>
</g>
<!-- Page -->
<g id="node17" class="node"><title>Page</title>
<path fill="none" stroke="black" d="M930.967,-1017C930.967,-1017 1067.97,-1017 1067.97,-1017 1073.97,-1017 1079.97,-1023 1079.97,-1029 1079.97,-1029 1079.97,-1381 1079.97,-1381 1079.97,-1387 1073.97,-1393 1067.97,-1393 1067.97,-1393 930.967,-1393 930.967,-1393 924.967,-1393 918.967,-1387 918.967,-1381 918.967,-1381 918.967,-1029 918.967,-1029 918.967,-1023 924.967,-1017 930.967,-1017"/>
<text text-anchor="middle" x="999.467" y="-1377.8" font-family="Times,serif" font-size="14.00">Page</text>
<polyline fill="none" stroke="black" points="918.967,-1370 1079.97,-1370 "/>
<text text-anchor="start" x="926.967" y="-1354.8" font-family="Times,serif" font-size="14.00">id :INTEGER</text>
<text text-anchor="start" x="926.967" y="-1339.8" font-family="Times,serif" font-size="14.00">type :varchar(255)</text>
<text text-anchor="start" x="926.967" y="-1324.8" font-family="Times,serif" font-size="14.00">title :varchar(255)</text>
<text text-anchor="start" x="926.967" y="-1309.8" font-family="Times,serif" font-size="14.00">author :varchar(255)</text>
<text text-anchor="start" x="926.967" y="-1294.8" font-family="Times,serif" font-size="14.00">body :text</text>
<text text-anchor="start" x="926.967" y="-1279.8" font-family="Times,serif" font-size="14.00">extended :text</text>
<text text-anchor="start" x="926.967" y="-1264.8" font-family="Times,serif" font-size="14.00">excerpt :text</text>
<text text-anchor="start" x="926.967" y="-1249.8" font-family="Times,serif" font-size="14.00">created_at :datetime</text>
<text text-anchor="start" x="926.967" y="-1234.8" font-family="Times,serif" font-size="14.00">updated_at :datetime</text>
<text text-anchor="start" x="926.967" y="-1219.8" font-family="Times,serif" font-size="14.00">user_id :integer</text>
<text text-anchor="start" x="926.967" y="-1204.8" font-family="Times,serif" font-size="14.00">permalink :varchar(255)</text>
<text text-anchor="start" x="926.967" y="-1189.8" font-family="Times,serif" font-size="14.00">guid :varchar(255)</text>
<text text-anchor="start" x="926.967" y="-1174.8" font-family="Times,serif" font-size="14.00">text_filter_id :integer</text>
<text text-anchor="start" x="926.967" y="-1159.8" font-family="Times,serif" font-size="14.00">whiteboard :text</text>
<text text-anchor="start" x="926.967" y="-1144.8" font-family="Times,serif" font-size="14.00">name :varchar(255)</text>
<text text-anchor="start" x="926.967" y="-1129.8" font-family="Times,serif" font-size="14.00">published :boolean</text>
<text text-anchor="start" x="926.967" y="-1114.8" font-family="Times,serif" font-size="14.00">allow_pings :boolean</text>
<text text-anchor="start" x="926.967" y="-1099.8" font-family="Times,serif" font-size="14.00">allow_comments :boolean</text>
<text text-anchor="start" x="926.967" y="-1084.8" font-family="Times,serif" font-size="14.00">published_at :datetime</text>
<text text-anchor="start" x="926.967" y="-1069.8" font-family="Times,serif" font-size="14.00">state :varchar(255)</text>
<text text-anchor="start" x="926.967" y="-1054.8" font-family="Times,serif" font-size="14.00">parent_id :integer</text>
<text text-anchor="start" x="926.967" y="-1039.8" font-family="Times,serif" font-size="14.00">settings :text</text>
<text text-anchor="start" x="926.967" y="-1024.8" font-family="Times,serif" font-size="14.00">post_type :varchar(255)</text>
</g>
<!-- Page&#45;&gt;Redirection -->
<g id="edge14" class="edge"><title>Page&#45;&gt;Redirection</title>
<path fill="none" stroke="#dd3c3b" d="M1061.58,-1009.07C1087.4,-911.592 1111.47,-791.186 1111.47,-681 1111.47,-681 1111.47,-681 1111.47,-176 1111.47,-126.03 1080.63,-109.322 1032.47,-96 885.876,-55.4509 706.975,-44.1969 610.066,-41.1169"/>
<ellipse fill="none" stroke="#dd3c3b" cx="1060.52" cy="-1013.07" rx="4.00001" ry="4.00001"/>
<polygon fill="#dd3c3b" stroke="#dd3c3b" points="609.801,-41.1091 599.939,-36.3137 604.803,-40.9604 599.805,-40.8117 599.805,-40.8117 599.805,-40.8117 604.803,-40.9604 599.671,-45.3098 609.801,-41.1091 609.801,-41.1091"/>
</g>
<!-- Page&#45;&gt;Trigger -->
<g id="edge16" class="edge"><title>Page&#45;&gt;Trigger</title>
<path fill="none" stroke="#f07969" d="M1004.26,-1008.67C1008.25,-773.514 1008.56,-393.09 973.467,-256 972.04,-250.428 970.163,-244.8 967.999,-239.256"/>
<ellipse fill="none" stroke="#f07969" cx="1004.18" cy="-1012.98" rx="4" ry="4"/>
<polygon fill="#f07969" stroke="#f07969" points="967.994,-239.245 968.264,-228.282 966.055,-234.636 964.116,-230.028 964.116,-230.028 964.116,-230.028 966.055,-234.636 959.968,-231.773 967.994,-239.245 967.994,-239.245"/>
</g>
<!-- Page&#45;&gt;Redirect -->
<g id="edge15" class="edge"><title>Page&#45;&gt;Redirect</title>
<path fill="none" stroke="#83696a" d="M995.485,-1006.68C986.321,-761.308 956.202,-361.785 857.467,-256 841.454,-238.844 713.778,-211.365 625.162,-194.02"/>
<polygon fill="#83696a" stroke="#83696a" points="995.489,-1006.8 991.357,-1016.96 995.672,-1011.8 995.854,-1016.79 995.854,-1016.79 995.854,-1016.79 995.672,-1011.8 1000.35,-1016.63 995.489,-1006.8 995.489,-1006.8"/>
<polygon fill="#83696a" stroke="#83696a" points="624.915,-193.972 615.959,-187.644 620.007,-193.016 615.099,-192.061 615.099,-192.061 615.099,-192.061 620.007,-193.016 614.239,-196.478 624.915,-193.972 624.915,-193.972"/>
</g>
<!-- Page&#45;&gt;Notification -->
<g id="edge12" class="edge"><title>Page&#45;&gt;Notification</title>
<path fill="none" stroke="#707b13" d="M959.058,-1009.14C905.005,-767.277 803.172,-374.555 693.467,-276 667.484,-252.658 651.807,-262.379 617.467,-256 545.808,-242.69 524.63,-257.733 454.467,-238 436.725,-233.01 418.378,-225.785 401.308,-218.065"/>
<ellipse fill="none" stroke="#707b13" cx="959.932" cy="-1013.06" rx="4.00001" ry="4.00001"/>
<polygon fill="#707b13" stroke="#707b13" points="401.04,-217.942 393.859,-209.654 396.504,-215.839 391.967,-213.737 391.967,-213.737 391.967,-213.737 396.504,-215.839 390.075,-217.82 401.04,-217.942 401.04,-217.942"/>
</g>
<!-- Page&#45;&gt;User -->
<g id="edge13" class="edge"><title>Page&#45;&gt;User</title>
<path fill="none" stroke="#dc18ab" d="M911.598,-1017.89C910.893,-1017.26 910.182,-1016.62 909.467,-1016 889.772,-998.808 877.418,-1008.48 853.467,-998 797.713,-973.606 738.745,-941.517 688.858,-912.338"/>
<polygon fill="#dc18ab" stroke="#dc18ab" points="911.755,-1018.05 915.835,-1028.22 915.356,-1021.51 918.957,-1024.98 918.957,-1024.98 918.957,-1024.98 915.356,-1021.51 922.079,-1021.74 911.755,-1018.05 911.755,-1018.05"/>
<polygon fill="#dc18ab" stroke="#dc18ab" points="688.594,-912.183 682.253,-903.237 684.283,-909.65 679.973,-907.116 679.973,-907.116 679.973,-907.116 684.283,-909.65 677.693,-910.996 688.594,-912.183 688.594,-912.183"/>
<text text-anchor="middle" x="886.967" y="-986.3" font-family="Times,serif" font-size="14.00">notify_users</text>
</g>
<!-- Feedback -->
<g id="node18" class="node"><title>Feedback</title>
<path fill="none" stroke="black" d="M68.9668,-1032C68.9668,-1032 205.967,-1032 205.967,-1032 211.967,-1032 217.967,-1038 217.967,-1044 217.967,-1044 217.967,-1366 217.967,-1366 217.967,-1372 211.967,-1378 205.967,-1378 205.967,-1378 68.9668,-1378 68.9668,-1378 62.9668,-1378 56.9668,-1372 56.9668,-1366 56.9668,-1366 56.9668,-1044 56.9668,-1044 56.9668,-1038 62.9668,-1032 68.9668,-1032"/>
<text text-anchor="middle" x="137.467" y="-1362.8" font-family="Times,serif" font-size="14.00">Feedback</text>
<polyline fill="none" stroke="black" points="56.9668,-1355 217.967,-1355 "/>
<text text-anchor="start" x="64.9668" y="-1339.8" font-family="Times,serif" font-size="14.00">id :INTEGER</text>
<text text-anchor="start" x="64.9668" y="-1324.8" font-family="Times,serif" font-size="14.00">type :varchar(255)</text>
<text text-anchor="start" x="64.9668" y="-1309.8" font-family="Times,serif" font-size="14.00">title :varchar(255)</text>
<text text-anchor="start" x="64.9668" y="-1294.8" font-family="Times,serif" font-size="14.00">author :varchar(255)</text>
<text text-anchor="start" x="64.9668" y="-1279.8" font-family="Times,serif" font-size="14.00">body :text</text>
<text text-anchor="start" x="64.9668" y="-1264.8" font-family="Times,serif" font-size="14.00">excerpt :text</text>
<text text-anchor="start" x="64.9668" y="-1249.8" font-family="Times,serif" font-size="14.00">created_at :datetime</text>
<text text-anchor="start" x="64.9668" y="-1234.8" font-family="Times,serif" font-size="14.00">updated_at :datetime</text>
<text text-anchor="start" x="64.9668" y="-1219.8" font-family="Times,serif" font-size="14.00">user_id :integer</text>
<text text-anchor="start" x="64.9668" y="-1204.8" font-family="Times,serif" font-size="14.00">guid :varchar(255)</text>
<text text-anchor="start" x="64.9668" y="-1189.8" font-family="Times,serif" font-size="14.00">text_filter_id :integer</text>
<text text-anchor="start" x="64.9668" y="-1174.8" font-family="Times,serif" font-size="14.00">whiteboard :text</text>
<text text-anchor="start" x="64.9668" y="-1159.8" font-family="Times,serif" font-size="14.00">article_id :integer</text>
<text text-anchor="start" x="64.9668" y="-1144.8" font-family="Times,serif" font-size="14.00">email :varchar(255)</text>
<text text-anchor="start" x="64.9668" y="-1129.8" font-family="Times,serif" font-size="14.00">url :varchar(255)</text>
<text text-anchor="start" x="64.9668" y="-1114.8" font-family="Times,serif" font-size="14.00">ip :varchar(40)</text>
<text text-anchor="start" x="64.9668" y="-1099.8" font-family="Times,serif" font-size="14.00">blog_name :varchar(255)</text>
<text text-anchor="start" x="64.9668" y="-1084.8" font-family="Times,serif" font-size="14.00">published :boolean</text>
<text text-anchor="start" x="64.9668" y="-1069.8" font-family="Times,serif" font-size="14.00">published_at :datetime</text>
<text text-anchor="start" x="64.9668" y="-1054.8" font-family="Times,serif" font-size="14.00">state :varchar(255)</text>
<text text-anchor="start" x="64.9668" y="-1039.8" font-family="Times,serif" font-size="14.00">status_confirmed :boolean</text>
</g>
<!-- Feedback&#45;&gt;Redirection -->
<g id="edge19" class="edge"><title>Feedback&#45;&gt;Redirection</title>
<path fill="none" stroke="#0c586c" d="M125.818,-1023.83C122.843,-964.083 120.467,-897.209 120.467,-836 120.467,-836 120.467,-836 120.467,-176 120.467,-103.545 350.002,-63.8414 469.293,-48.0998"/>
<ellipse fill="none" stroke="#0c586c" cx="126.02" cy="-1027.84" rx="4" ry="4"/>
<polygon fill="#0c586c" stroke="#0c586c" points="469.517,-48.0708 480.013,-51.2468 474.476,-47.4275 479.434,-46.7842 479.434,-46.7842 479.434,-46.7842 474.476,-47.4275 478.855,-42.3216 469.517,-48.0708 469.517,-48.0708"/>
</g>
<!-- Feedback&#45;&gt;Trigger -->
<g id="edge21" class="edge"><title>Feedback&#45;&gt;Trigger</title>
<path fill="none" stroke="#a8d1e0" d="M221.698,-1025.3C223.291,-1022.17 224.882,-1019.07 226.467,-1016 244.595,-980.906 367.137,-727.198 400.467,-706 446.343,-676.822 600.195,-719.561 644.467,-688 806.745,-572.312 704.236,-437.168 821.467,-276 831.504,-262.202 843.815,-249.001 856.56,-237.007"/>
<ellipse fill="none" stroke="#a8d1e0" cx="219.784" cy="-1029.07" rx="4.00002" ry="4.00002"/>
<polygon fill="#a8d1e0" stroke="#a8d1e0" points="856.731,-236.85 867.142,-233.406 860.416,-233.47 864.1,-230.09 864.1,-230.09 864.1,-230.09 860.416,-233.47 861.058,-226.774 856.731,-236.85 856.731,-236.85"/>
</g>
<!-- Feedback&#45;&gt;Redirect -->
<g id="edge20" class="edge"><title>Feedback&#45;&gt;Redirect</title>
<path fill="none" stroke="#a52dfa" d="M193.037,-1022.28C198.725,-1002.65 204.304,-982.935 209.467,-964 230.172,-888.055 331.936,-339.492 378.467,-276 397.84,-249.564 426.7,-228.813 454.656,-213.345"/>
<polygon fill="#a52dfa" stroke="#a52dfa" points="193.029,-1022.31 185.916,-1030.65 191.633,-1027.11 190.237,-1031.91 190.237,-1031.91 190.237,-1031.91 191.633,-1027.11 194.558,-1033.17 193.029,-1022.31 193.029,-1022.31"/>
<polygon fill="#a52dfa" stroke="#a52dfa" points="454.873,-213.229 465.813,-212.475 459.28,-210.868 463.688,-208.508 463.688,-208.508 463.688,-208.508 459.28,-210.868 461.564,-204.541 454.873,-213.229 454.873,-213.229"/>
</g>
<!-- Feedback&#45;&gt;Notification -->
<g id="edge17" class="edge"><title>Feedback&#45;&gt;Notification</title>
<path fill="none" stroke="#5e4d74" d="M165.293,-1023.85C204.092,-774.535 271.792,-346.85 290.467,-276 293.62,-264.037 297.651,-251.487 301.867,-239.513"/>
<ellipse fill="none" stroke="#5e4d74" cx="164.655" cy="-1027.96" rx="4.00001" ry="4.00001"/>
<polygon fill="#5e4d74" stroke="#5e4d74" points="301.885,-239.464 309.509,-231.582 303.58,-234.76 305.275,-230.056 305.275,-230.056 305.275,-230.056 303.58,-234.76 301.042,-228.531 301.885,-239.464 301.885,-239.464"/>
</g>
<!-- Feedback&#45;&gt;User -->
<g id="edge18" class="edge"><title>Feedback&#45;&gt;User</title>
<path fill="none" stroke="#78ddb9" d="M217.792,-1024.04C220.592,-1021.25 223.483,-1018.56 226.467,-1016 241.775,-1002.85 382.51,-973.204 400.467,-964 415.221,-956.438 429.982,-947.513 444.279,-937.951"/>
<polygon fill="#78ddb9" stroke="#78ddb9" points="217.453,-1024.4 207.316,-1028.58 214.02,-1028.03 210.587,-1031.67 210.587,-1031.67 210.587,-1031.67 214.02,-1028.03 213.859,-1034.76 217.453,-1024.4 217.453,-1024.4"/>
<polygon fill="#78ddb9" stroke="#78ddb9" points="444.376,-937.884 455.174,-935.971 448.508,-935.068 452.639,-932.252 452.639,-932.252 452.639,-932.252 448.508,-935.068 450.105,-928.534 444.376,-937.884 444.376,-937.884"/>
<text text-anchor="middle" x="369.967" y="-986.3" font-family="Times,serif" font-size="14.00">notify_users</text>
</g>
<!-- Resource -->
<g id="node19" class="node"><title>Resource</title>
<path fill="none" stroke="black" d="M1147.97,-1077C1147.97,-1077 1308.97,-1077 1308.97,-1077 1314.97,-1077 1320.97,-1083 1320.97,-1089 1320.97,-1089 1320.97,-1321 1320.97,-1321 1320.97,-1327 1314.97,-1333 1308.97,-1333 1308.97,-1333 1147.97,-1333 1147.97,-1333 1141.97,-1333 1135.97,-1327 1135.97,-1321 1135.97,-1321 1135.97,-1089 1135.97,-1089 1135.97,-1083 1141.97,-1077 1147.97,-1077"/>
<text text-anchor="middle" x="1228.47" y="-1317.8" font-family="Times,serif" font-size="14.00">Resource</text>
<polyline fill="none" stroke="black" points="1135.97,-1310 1320.97,-1310 "/>
<text text-anchor="start" x="1143.97" y="-1294.8" font-family="Times,serif" font-size="14.00">id :INTEGER</text>
<text text-anchor="start" x="1143.97" y="-1279.8" font-family="Times,serif" font-size="14.00">size :integer</text>
<text text-anchor="start" x="1143.97" y="-1264.8" font-family="Times,serif" font-size="14.00">filename :varchar(255)</text>
<text text-anchor="start" x="1143.97" y="-1249.8" font-family="Times,serif" font-size="14.00">mime :varchar(255)</text>
<text text-anchor="start" x="1143.97" y="-1234.8" font-family="Times,serif" font-size="14.00">created_at :datetime</text>
<text text-anchor="start" x="1143.97" y="-1219.8" font-family="Times,serif" font-size="14.00">updated_at :datetime</text>
<text text-anchor="start" x="1143.97" y="-1204.8" font-family="Times,serif" font-size="14.00">article_id :integer</text>
<text text-anchor="start" x="1143.97" y="-1189.8" font-family="Times,serif" font-size="14.00">itunes_metadata :boolean</text>
<text text-anchor="start" x="1143.97" y="-1174.8" font-family="Times,serif" font-size="14.00">itunes_author :varchar(255)</text>
<text text-anchor="start" x="1143.97" y="-1159.8" font-family="Times,serif" font-size="14.00">itunes_subtitle :varchar(255)</text>
<text text-anchor="start" x="1143.97" y="-1144.8" font-family="Times,serif" font-size="14.00">itunes_duration :integer</text>
<text text-anchor="start" x="1143.97" y="-1129.8" font-family="Times,serif" font-size="14.00">itunes_summary :text</text>
<text text-anchor="start" x="1143.97" y="-1114.8" font-family="Times,serif" font-size="14.00">itunes_keywords :varchar(255)</text>
<text text-anchor="start" x="1143.97" y="-1099.8" font-family="Times,serif" font-size="14.00">itunes_category :varchar(255)</text>
<text text-anchor="start" x="1143.97" y="-1084.8" font-family="Times,serif" font-size="14.00">itunes_explicit :boolean</text>
</g>
<!-- Categorization -->
<g id="node20" class="node"><title>Categorization</title>
<path fill="none" stroke="black" d="M1388.47,-1159.5C1388.47,-1159.5 1490.47,-1159.5 1490.47,-1159.5 1496.47,-1159.5 1502.47,-1165.5 1502.47,-1171.5 1502.47,-1171.5 1502.47,-1238.5 1502.47,-1238.5 1502.47,-1244.5 1496.47,-1250.5 1490.47,-1250.5 1490.47,-1250.5 1388.47,-1250.5 1388.47,-1250.5 1382.47,-1250.5 1376.47,-1244.5 1376.47,-1238.5 1376.47,-1238.5 1376.47,-1171.5 1376.47,-1171.5 1376.47,-1165.5 1382.47,-1159.5 1388.47,-1159.5"/>
<text text-anchor="middle" x="1439.47" y="-1235.3" font-family="Times,serif" font-size="14.00">Categorization</text>
<polyline fill="none" stroke="black" points="1376.47,-1227.5 1502.47,-1227.5 "/>
<text text-anchor="start" x="1384.47" y="-1212.3" font-family="Times,serif" font-size="14.00">id :INTEGER</text>
<text text-anchor="start" x="1384.47" y="-1197.3" font-family="Times,serif" font-size="14.00">article_id :integer</text>
<text text-anchor="start" x="1384.47" y="-1182.3" font-family="Times,serif" font-size="14.00">category_id :integer</text>
<text text-anchor="start" x="1384.47" y="-1167.3" font-family="Times,serif" font-size="14.00">is_primary :boolean</text>
</g>
<!-- PostType -->
<g id="node21" class="node"><title>PostType</title>
<path fill="none" stroke="black" d="M2390.47,-1885.5C2390.47,-1885.5 2520.47,-1885.5 2520.47,-1885.5 2526.47,-1885.5 2532.47,-1891.5 2532.47,-1897.5 2532.47,-1897.5 2532.47,-1964.5 2532.47,-1964.5 2532.47,-1970.5 2526.47,-1976.5 2520.47,-1976.5 2520.47,-1976.5 2390.47,-1976.5 2390.47,-1976.5 2384.47,-1976.5 2378.47,-1970.5 2378.47,-1964.5 2378.47,-1964.5 2378.47,-1897.5 2378.47,-1897.5 2378.47,-1891.5 2384.47,-1885.5 2390.47,-1885.5"/>
<text text-anchor="middle" x="2455.47" y="-1961.3" font-family="Times,serif" font-size="14.00">PostType</text>
<polyline fill="none" stroke="black" points="2378.47,-1953.5 2532.47,-1953.5 "/>
<text text-anchor="start" x="2386.47" y="-1938.3" font-family="Times,serif" font-size="14.00">id :INTEGER</text>
<text text-anchor="start" x="2386.47" y="-1923.3" font-family="Times,serif" font-size="14.00">name :varchar(255)</text>
<text text-anchor="start" x="2386.47" y="-1908.3" font-family="Times,serif" font-size="14.00">permalink :varchar(255)</text>
<text text-anchor="start" x="2386.47" y="-1893.3" font-family="Times,serif" font-size="14.00">description :varchar(255)</text>
</g>
<!-- Right -->
<g id="node22" class="node"><title>Right</title>
<path fill="none" stroke="black" d="M2562.47,-1893C2562.47,-1893 2692.47,-1893 2692.47,-1893 2698.47,-1893 2704.47,-1899 2704.47,-1905 2704.47,-1905 2704.47,-1957 2704.47,-1957 2704.47,-1963 2698.47,-1969 2692.47,-1969 2692.47,-1969 2562.47,-1969 2562.47,-1969 2556.47,-1969 2550.47,-1963 2550.47,-1957 2550.47,-1957 2550.47,-1905 2550.47,-1905 2550.47,-1899 2556.47,-1893 2562.47,-1893"/>
<text text-anchor="middle" x="2627.47" y="-1953.8" font-family="Times,serif" font-size="14.00">Right</text>
<polyline fill="none" stroke="black" points="2550.47,-1946 2704.47,-1946 "/>
<text text-anchor="start" x="2558.47" y="-1930.8" font-family="Times,serif" font-size="14.00">id :INTEGER</text>
<text text-anchor="start" x="2558.47" y="-1915.8" font-family="Times,serif" font-size="14.00">name :varchar(255)</text>
<text text-anchor="start" x="2558.47" y="-1900.8" font-family="Times,serif" font-size="14.00">description :varchar(255)</text>
</g>
<!-- Profile -->
<g id="node29" class="node"><title>Profile</title>
<path fill="none" stroke="black" d="M2566.47,-1589.5C2566.47,-1589.5 2688.47,-1589.5 2688.47,-1589.5 2694.47,-1589.5 2700.47,-1595.5 2700.47,-1601.5 2700.47,-1601.5 2700.47,-1668.5 2700.47,-1668.5 2700.47,-1674.5 2694.47,-1680.5 2688.47,-1680.5 2688.47,-1680.5 2566.47,-1680.5 2566.47,-1680.5 2560.47,-1680.5 2554.47,-1674.5 2554.47,-1668.5 2554.47,-1668.5 2554.47,-1601.5 2554.47,-1601.5 2554.47,-1595.5 2560.47,-1589.5 2566.47,-1589.5"/>
<text text-anchor="middle" x="2627.47" y="-1665.3" font-family="Times,serif" font-size="14.00">Profile</text>
<polyline fill="none" stroke="black" points="2554.47,-1657.5 2700.47,-1657.5 "/>
<text text-anchor="start" x="2562.47" y="-1642.3" font-family="Times,serif" font-size="14.00">id :INTEGER</text>
<text text-anchor="start" x="2562.47" y="-1627.3" font-family="Times,serif" font-size="14.00">label :varchar(255)</text>
<text text-anchor="start" x="2562.47" y="-1612.3" font-family="Times,serif" font-size="14.00">nicename :varchar(255)</text>
<text text-anchor="start" x="2562.47" y="-1597.3" font-family="Times,serif" font-size="14.00">modules :text</text>
</g>
<!-- Right&#45;&gt;Profile -->
<g id="edge22" class="edge"><title>Right&#45;&gt;Profile</title>
<path fill="none" stroke="#e020f8" d="M2627.47,-1882.45C2627.47,-1830.09 2627.47,-1746.02 2627.47,-1690.89"/>
<polygon fill="#e020f8" stroke="#e020f8" points="2627.47,-1882.76 2622.97,-1892.76 2627.47,-1887.76 2627.47,-1892.76 2627.47,-1892.76 2627.47,-1892.76 2627.47,-1887.76 2631.97,-1892.76 2627.47,-1882.76 2627.47,-1882.76"/>
<polygon fill="#e020f8" stroke="#e020f8" points="2627.47,-1690.61 2631.97,-1680.61 2627.47,-1685.61 2627.47,-1680.61 2627.47,-1680.61 2627.47,-1680.61 2627.47,-1685.61 2622.97,-1680.61 2627.47,-1690.61 2627.47,-1690.61"/>
</g>
<!-- ConfigManager -->
<g id="node23" class="node"><title>ConfigManager</title>
<polygon fill="none" stroke="black" stroke-dasharray="1,5" points="2825.72,-1949 2723.22,-1949 2723.22,-1913 2825.72,-1913 2825.72,-1949"/>
<text text-anchor="middle" x="2774.47" y="-1927.3" font-family="Times,serif" font-size="14.00">ConfigManager</text>
</g>
<!-- Redirect&#45;&gt;Redirection -->
<g id="edge23" class="edge"><title>Redirect&#45;&gt;Redirection</title>
<path fill="none" stroke="#de72d5" d="M539.467,-108.223C539.467,-101.234 539.467,-94.2418 539.467,-87.5417"/>
<ellipse fill="none" stroke="#de72d5" cx="539.467" cy="-112.348" rx="4" ry="4"/>
<polygon fill="#de72d5" stroke="#de72d5" points="539.467,-87.2961 543.967,-77.296 539.467,-82.2961 539.467,-77.2961 539.467,-77.2961 539.467,-77.2961 539.467,-82.2961 534.967,-77.2961 539.467,-87.2961 539.467,-87.2961"/>
</g>
<!-- Category -->
<g id="node25" class="node"><title>Category</title>
<path fill="none" stroke="black" d="M1080.97,-1863C1080.97,-1863 1205.97,-1863 1205.97,-1863 1211.97,-1863 1217.97,-1869 1217.97,-1875 1217.97,-1875 1217.97,-1987 1217.97,-1987 1217.97,-1993 1211.97,-1999 1205.97,-1999 1205.97,-1999 1080.97,-1999 1080.97,-1999 1074.97,-1999 1068.97,-1993 1068.97,-1987 1068.97,-1987 1068.97,-1875 1068.97,-1875 1068.97,-1869 1074.97,-1863 1080.97,-1863"/>
<text text-anchor="middle" x="1143.47" y="-1983.8" font-family="Times,serif" font-size="14.00">Category</text>
<polyline fill="none" stroke="black" points="1068.97,-1976 1217.97,-1976 "/>
<text text-anchor="start" x="1076.97" y="-1960.8" font-family="Times,serif" font-size="14.00">id :INTEGER</text>
<text text-anchor="start" x="1076.97" y="-1945.8" font-family="Times,serif" font-size="14.00">name :varchar(255)</text>
<text text-anchor="start" x="1076.97" y="-1930.8" font-family="Times,serif" font-size="14.00">position :integer</text>
<text text-anchor="start" x="1076.97" y="-1915.8" font-family="Times,serif" font-size="14.00">permalink :varchar(255)</text>
<text text-anchor="start" x="1076.97" y="-1900.8" font-family="Times,serif" font-size="14.00">keywords :text</text>
<text text-anchor="start" x="1076.97" y="-1885.8" font-family="Times,serif" font-size="14.00">description :text</text>
<text text-anchor="start" x="1076.97" y="-1870.8" font-family="Times,serif" font-size="14.00">parent_id :integer</text>
</g>
<!-- Category&#45;&gt;Categorization -->
<g id="edge25" class="edge"><title>Category&#45;&gt;Categorization</title>
<path fill="none" stroke="#861e2a" d="M1184.74,-1855.76C1236.89,-1759.51 1326.65,-1585.34 1383.47,-1428 1403.61,-1372.21 1419.3,-1306.04 1428.88,-1260.54"/>
<ellipse fill="none" stroke="#861e2a" cx="1182.81" cy="-1859.32" rx="4.00002" ry="4.00002"/>
<polygon fill="#861e2a" stroke="#861e2a" points="1428.91,-1260.37 1435.35,-1251.5 1429.93,-1255.48 1430.95,-1250.58 1430.95,-1250.58 1430.95,-1250.58 1429.93,-1255.48 1426.54,-1249.67 1428.91,-1260.37 1428.91,-1260.37"/>
</g>
<!-- Category&#45;&gt;Category -->
<g id="edge24" class="edge"><title>Category&#45;&gt;Category</title>
<path fill="none" stroke="#ca42d7" d="M1226.03,-1943.09C1231.89,-1940.34 1235.47,-1936.31 1235.47,-1931 1235.47,-1926.27 1232.63,-1922.55 1227.86,-1919.85"/>
<ellipse fill="none" stroke="#ca42d7" cx="1221.98" cy="-1944.45" rx="4.00001" ry="4.00001"/>
<polygon fill="#ca42d7" stroke="#ca42d7" points="1227.57,-1919.74 1219.75,-1912.06 1222.88,-1918.01 1218.19,-1916.28 1218.19,-1916.28 1218.19,-1916.28 1222.88,-1918.01 1216.63,-1920.5 1227.57,-1919.74 1227.57,-1919.74"/>
<text text-anchor="middle" x="1257.97" y="-1927.3" font-family="Times,serif" font-size="14.00">children</text>
</g>
<!-- Category&#45;&gt;Article -->
<g id="edge26" class="edge"><title>Category&#45;&gt;Article</title>
<path fill="none" stroke="#1adfa4" d="M1059.96,-1875.56C980.912,-1824.03 862.626,-1746.92 781.74,-1694.2"/>
<polygon fill="#1adfa4" stroke="#1adfa4" points="1060.36,-1875.83 1066.28,-1885.06 1064.55,-1878.56 1068.74,-1881.29 1068.74,-1881.29 1068.74,-1881.29 1064.55,-1878.56 1071.2,-1877.52 1060.36,-1875.83 1060.36,-1875.83"/>
<polygon fill="#1adfa4" stroke="#1adfa4" points="781.428,-1693.99 775.508,-1684.76 777.239,-1691.26 773.051,-1688.53 773.051,-1688.53 773.051,-1688.53 777.239,-1691.26 770.593,-1692.3 781.428,-1693.99 781.428,-1693.99"/>
</g>
<!-- Comment -->
<g id="node26" class="node"><title>Comment</title>
<path fill="none" stroke="black" d="M392.967,-1032C392.967,-1032 529.967,-1032 529.967,-1032 535.967,-1032 541.967,-1038 541.967,-1044 541.967,-1044 541.967,-1366 541.967,-1366 541.967,-1372 535.967,-1378 529.967,-1378 529.967,-1378 392.967,-1378 392.967,-1378 386.967,-1378 380.967,-1372 380.967,-1366 380.967,-1366 380.967,-1044 380.967,-1044 380.967,-1038 386.967,-1032 392.967,-1032"/>
<text text-anchor="middle" x="461.467" y="-1362.8" font-family="Times,serif" font-size="14.00">Comment</text>
<polyline fill="none" stroke="black" points="380.967,-1355 541.967,-1355 "/>
<text text-anchor="start" x="388.967" y="-1339.8" font-family="Times,serif" font-size="14.00">id :INTEGER</text>
<text text-anchor="start" x="388.967" y="-1324.8" font-family="Times,serif" font-size="14.00">type :varchar(255)</text>
<text text-anchor="start" x="388.967" y="-1309.8" font-family="Times,serif" font-size="14.00">title :varchar(255)</text>
<text text-anchor="start" x="388.967" y="-1294.8" font-family="Times,serif" font-size="14.00">author :varchar(255)</text>
<text text-anchor="start" x="388.967" y="-1279.8" font-family="Times,serif" font-size="14.00">body :text</text>
<text text-anchor="start" x="388.967" y="-1264.8" font-family="Times,serif" font-size="14.00">excerpt :text</text>
<text text-anchor="start" x="388.967" y="-1249.8" font-family="Times,serif" font-size="14.00">created_at :datetime</text>
<text text-anchor="start" x="388.967" y="-1234.8" font-family="Times,serif" font-size="14.00">updated_at :datetime</text>
<text text-anchor="start" x="388.967" y="-1219.8" font-family="Times,serif" font-size="14.00">user_id :integer</text>
<text text-anchor="start" x="388.967" y="-1204.8" font-family="Times,serif" font-size="14.00">guid :varchar(255)</text>
<text text-anchor="start" x="388.967" y="-1189.8" font-family="Times,serif" font-size="14.00">text_filter_id :integer</text>
<text text-anchor="start" x="388.967" y="-1174.8" font-family="Times,serif" font-size="14.00">whiteboard :text</text>
<text text-anchor="start" x="388.967" y="-1159.8" font-family="Times,serif" font-size="14.00">article_id :integer</text>
<text text-anchor="start" x="388.967" y="-1144.8" font-family="Times,serif" font-size="14.00">email :varchar(255)</text>
<text text-anchor="start" x="388.967" y="-1129.8" font-family="Times,serif" font-size="14.00">url :varchar(255)</text>
<text text-anchor="start" x="388.967" y="-1114.8" font-family="Times,serif" font-size="14.00">ip :varchar(40)</text>
<text text-anchor="start" x="388.967" y="-1099.8" font-family="Times,serif" font-size="14.00">blog_name :varchar(255)</text>
<text text-anchor="start" x="388.967" y="-1084.8" font-family="Times,serif" font-size="14.00">published :boolean</text>
<text text-anchor="start" x="388.967" y="-1069.8" font-family="Times,serif" font-size="14.00">published_at :datetime</text>
<text text-anchor="start" x="388.967" y="-1054.8" font-family="Times,serif" font-size="14.00">state :varchar(255)</text>
<text text-anchor="start" x="388.967" y="-1039.8" font-family="Times,serif" font-size="14.00">status_confirmed :boolean</text>
</g>
<!-- Comment&#45;&gt;Redirection -->
<g id="edge29" class="edge"><title>Comment&#45;&gt;Redirection</title>
<path fill="none" stroke="#2c7e55" d="M379.033,-1025.32C376.566,-1022.14 374.044,-1019.03 371.467,-1016 345.165,-985.122 316.382,-999.336 296.467,-964 203.811,-799.603 136.304,-265.495 251.467,-116 277.856,-81.7441 392.679,-59.8105 469.128,-48.7191"/>
<ellipse fill="none" stroke="#2c7e55" cx="381.615" cy="-1028.76" rx="4.00002" ry="4.00002"/>
<polygon fill="#2c7e55" stroke="#2c7e55" points="469.282,-48.6974 479.815,-51.7458 474.232,-47.994 479.182,-47.2906 479.182,-47.2906 479.182,-47.2906 474.232,-47.994 478.549,-42.8353 469.282,-48.6974 469.282,-48.6974"/>
</g>
<!-- Comment&#45;&gt;Trigger -->
<g id="edge31" class="edge"><title>Comment&#45;&gt;Trigger</title>
<path fill="none" stroke="#653910" d="M392.818,-1023.83C390.759,-1015.17 388.952,-1006.53 387.467,-998 386.247,-990.994 385.279,-988.766 387.467,-982 390.503,-972.61 396.666,-973.107 400.467,-964 445.234,-856.717 357.617,-784.38 443.467,-706 463.379,-687.82 658.846,-692.285 685.467,-688 746.98,-678.098 777.718,-698.361 821.467,-654 878.898,-595.765 913.325,-355.531 926.842,-240.261"/>
<ellipse fill="none" stroke="#653910" cx="393.822" cy="-1027.91" rx="4.00001" ry="4.00001"/>
<polygon fill="#653910" stroke="#653910" points="926.859,-240.108 932.479,-230.692 927.434,-235.141 928.009,-230.174 928.009,-230.174 928.009,-230.174 927.434,-235.141 923.538,-229.657 926.859,-240.108 926.859,-240.108"/>
</g>
<!-- Comment&#45;&gt;Redirect -->
<g id="edge30" class="edge"><title>Comment&#45;&gt;Redirect</title>
<path fill="none" stroke="#9e28f5" d="M376.448,-1026.2C374.776,-1022.77 373.114,-1019.37 371.467,-1016 367.536,-1007.97 364.522,-1006.71 362.467,-998 360.833,-991.079 362.036,-989.098 362.467,-982 372.04,-824.242 381.893,-419.343 448.467,-276 453.395,-265.389 459.909,-255.158 467.193,-245.569"/>
<polygon fill="#9e28f5" stroke="#9e28f5" points="376.518,-1026.34 376.848,-1037.3 378.706,-1030.84 380.895,-1035.33 380.895,-1035.33 380.895,-1035.33 378.706,-1030.84 384.941,-1033.36 376.518,-1026.34 376.518,-1026.34"/>
<polygon fill="#9e28f5" stroke="#9e28f5" points="467.25,-245.497 476.997,-240.472 470.363,-241.584 473.476,-237.671 473.476,-237.671 473.476,-237.671 470.363,-241.584 469.954,-234.87 467.25,-245.497 467.25,-245.497"/>
</g>
<!-- Comment&#45;&gt;Notification -->
<g id="edge27" class="edge"><title>Comment&#45;&gt;Notification</title>
<path fill="none" stroke="#565ab3" d="M376.747,-1025.04C374.995,-1021.99 373.234,-1018.98 371.467,-1016 366.427,-1007.52 361.774,-1007.3 358.467,-998 263.084,-729.876 297.069,-380.931 316.608,-240.533"/>
<ellipse fill="none" stroke="#565ab3" cx="378.843" cy="-1028.73" rx="4.00002" ry="4.00002"/>
<polygon fill="#565ab3" stroke="#565ab3" points="316.642,-240.29 322.501,-231.021 317.344,-235.34 318.046,-230.389 318.046,-230.389 318.046,-230.389 317.344,-235.34 313.59,-229.758 316.642,-240.29 316.642,-240.29"/>
</g>
<!-- Comment&#45;&gt;User -->
<g id="edge28" class="edge"><title>Comment&#45;&gt;User</title>
<path fill="none" stroke="#db9d32" d="M486.68,-1022.02C489.878,-1008.37 493.46,-994.902 497.467,-982 498.393,-979.017 499.37,-976.018 500.39,-973.008"/>
<polygon fill="#db9d32" stroke="#db9d32" points="486.632,-1022.23 480.031,-1030.99 485.526,-1027.11 484.419,-1031.99 484.419,-1031.99 484.419,-1031.99 485.526,-1027.11 488.807,-1032.98 486.632,-1022.23 486.632,-1022.23"/>
<polygon fill="#db9d32" stroke="#db9d32" points="500.462,-972.803 508.034,-964.87 502.126,-968.088 503.79,-963.373 503.79,-963.373 503.79,-963.373 502.126,-968.088 499.547,-961.875 500.462,-972.803 500.462,-972.803"/>
<text text-anchor="middle" x="530.967" y="-986.3" font-family="Times,serif" font-size="14.00">notify_users</text>
</g>
<!-- Article&#45;&gt;Ping -->
<g id="edge37" class="edge"><title>Article&#45;&gt;Ping</title>
<path fill="none" stroke="#77e780" d="M604.408,-1586.93C532.961,-1544.78 434.142,-1476.91 371.467,-1394 341.352,-1354.16 322.423,-1300.22 311.576,-1260.34"/>
<ellipse fill="none" stroke="#77e780" cx="608.218" cy="-1589.16" rx="4.00002" ry="4.00002"/>
<polygon fill="#77e780" stroke="#77e780" points="311.537,-1260.19 313.342,-1249.37 310.264,-1255.35 308.991,-1250.52 308.991,-1250.52 308.991,-1250.52 310.264,-1255.35 304.639,-1251.66 311.537,-1260.19 311.537,-1260.19"/>
</g>
<!-- Article&#45;&gt;Trackback -->
<g id="edge38" class="edge"><title>Article&#45;&gt;Trackback</title>
<path fill="none" stroke="#c847ef" d="M750.748,-1439.12C755.827,-1422.14 760.954,-1404.99 766.001,-1388.12"/>
<ellipse fill="none" stroke="#c847ef" cx="749.569" cy="-1443.06" rx="4.00001" ry="4.00001"/>
<polygon fill="#c847ef" stroke="#c847ef" points="766.097,-1387.8 773.273,-1379.51 767.529,-1383.01 768.962,-1378.22 768.962,-1378.22 768.962,-1378.22 767.529,-1383.01 764.651,-1376.93 766.097,-1387.8 766.097,-1387.8"/>
</g>
<!-- Article&#45;&gt;Trackback -->
<g id="edge44" class="edge"><title>Article&#45;&gt;Trackback</title>
<path fill="none" stroke="#ba0e48" d="M767.039,-1439.17C768.213,-1435.42 769.357,-1431.7 770.467,-1428 774.353,-1415.06 778.093,-1401.62 781.657,-1388.03"/>
<ellipse fill="none" stroke="#ba0e48" cx="765.801" cy="-1443.07" rx="4.00001" ry="4.00001"/>
<polygon fill="#ba0e48" stroke="#ba0e48" points="781.716,-1387.8 788.577,-1379.25 782.968,-1382.96 784.22,-1378.12 784.22,-1378.12 784.22,-1378.12 782.968,-1382.96 779.864,-1376.99 781.716,-1387.8 781.716,-1387.8"/>
<text text-anchor="middle" x="833.467" y="-1416.3" font-family="Times,serif" font-size="14.00">published_trackbacks</text>
</g>
<!-- Article&#45;&gt;Redirection -->
<g id="edge34" class="edge"><title>Article&#45;&gt;Redirection</title>
<path fill="none" stroke="#c7fbac" d="M780.741,-1601.42C954.611,-1537.15 1325.06,-1399.73 1329.47,-1394 1380.66,-1327.43 1348.47,-1289.98 1348.47,-1206 1348.47,-1206 1348.47,-1206 1348.47,-176 1348.47,-101.406 806.662,-57.8201 609.841,-44.4476"/>
<ellipse fill="none" stroke="#c7fbac" cx="776.871" cy="-1602.85" rx="4.00001" ry="4.00001"/>
<polygon fill="#c7fbac" stroke="#c7fbac" points="609.59,-44.4308 599.915,-39.269 604.601,-44.0948 599.612,-43.7589 599.612,-43.7589 599.612,-43.7589 604.601,-44.0948 599.31,-48.2487 609.59,-44.4308 609.59,-44.4308"/>
</g>
<!-- Article&#45;&gt;Trigger -->
<g id="edge36" class="edge"><title>Article&#45;&gt;Trigger</title>
<path fill="none" stroke="#52a997" d="M780.594,-1608.98C875.903,-1576.67 1022.97,-1510.28 1088.47,-1394 1184.78,-1223.01 1065.81,-430.346 1005.47,-276 1000.43,-263.105 993.242,-250.385 985.345,-238.597"/>
<ellipse fill="none" stroke="#52a997" cx="776.761" cy="-1610.26" rx="4.00001" ry="4.00001"/>
<polygon fill="#52a997" stroke="#52a997" points="985.204,-238.395 983.181,-227.617 982.346,-234.292 979.488,-230.189 979.488,-230.189 979.488,-230.189 982.346,-234.292 975.796,-232.761 985.204,-238.395 985.204,-238.395"/>
</g>
<!-- Article&#45;&gt;Feedback -->
<g id="edge39" class="edge"><title>Article&#45;&gt;Feedback</title>
<path fill="none" stroke="#636599" d="M603.66,-1628.28C480.269,-1615.11 260.137,-1571.62 153.467,-1428 144.394,-1415.79 137.734,-1402.08 132.959,-1387.62"/>
<ellipse fill="none" stroke="#636599" cx="607.667" cy="-1628.69" rx="4" ry="4"/>
<polygon fill="#636599" stroke="#636599" points="132.954,-1387.6 134.398,-1376.73 131.521,-1382.81 130.087,-1378.02 130.087,-1378.02 130.087,-1378.02 131.521,-1382.81 125.776,-1379.31 132.954,-1387.6 132.954,-1387.6"/>
</g>
<!-- Article&#45;&gt;Feedback -->
<g id="edge45" class="edge"><title>Article&#45;&gt;Feedback</title>
<path fill="none" stroke="#9c9480" d="M604.162,-1610.13C500.099,-1577.69 328.476,-1510.01 226.467,-1394 224.261,-1391.49 222.098,-1388.92 219.979,-1386.29"/>
<ellipse fill="none" stroke="#9c9480" cx="608.023" cy="-1611.32" rx="4.00001" ry="4.00001"/>
<polygon fill="#9c9480" stroke="#9c9480" points="219.87,-1386.15 217.307,-1375.49 216.81,-1382.2 213.749,-1378.24 213.749,-1378.24 213.749,-1378.24 216.81,-1382.2 210.19,-1381 219.87,-1386.15 219.87,-1386.15"/>
<text text-anchor="middle" x="310.967" y="-1416.3" font-family="Times,serif" font-size="14.00">published_feedback</text>
</g>
<!-- Article&#45;&gt;Resource -->
<g id="edge40" class="edge"><title>Article&#45;&gt;Resource</title>
<path fill="none" stroke="#c9f73f" d="M780.907,-1610.85C875.909,-1582.02 1026.17,-1524.42 1122.47,-1428 1146.57,-1403.86 1165.95,-1373.18 1181.21,-1342.38"/>
<ellipse fill="none" stroke="#c9f73f" cx="776.86" cy="-1612.07" rx="4.00001" ry="4.00001"/>
<polygon fill="#c9f73f" stroke="#c9f73f" points="1181.26,-1342.27 1189.66,-1335.22 1183.44,-1337.77 1185.61,-1333.27 1185.61,-1333.27 1185.61,-1333.27 1183.44,-1337.77 1181.56,-1331.31 1181.26,-1342.27 1181.26,-1342.27"/>
</g>
<!-- Article&#45;&gt;Categorization -->
<g id="edge41" class="edge"><title>Article&#45;&gt;Categorization</title>
<path fill="none" stroke="#73c68d" d="M781.523,-1631.3C923.258,-1622.22 1200.63,-1584.18 1362.47,-1428 1408.33,-1383.74 1426.89,-1310.82 1434.39,-1260.7"/>
<ellipse fill="none" stroke="#73c68d" cx="777.209" cy="-1631.57" rx="4" ry="4"/>
<polygon fill="#73c68d" stroke="#73c68d" points="1434.41,-1260.59 1440.25,-1251.31 1435.1,-1255.64 1435.79,-1250.69 1435.79,-1250.69 1435.79,-1250.69 1435.1,-1255.64 1431.34,-1250.06 1434.41,-1260.59 1434.41,-1260.59"/>
</g>
<!-- Article&#45;&gt;Redirect -->
<g id="edge35" class="edge"><title>Article&#45;&gt;Redirect</title>
<path fill="none" stroke="#73e73a" d="M697.287,-1436.74C697.348,-1433.81 697.408,-1430.89 697.467,-1428 702.666,-1171.58 735.85,-508.446 627.467,-276 622.56,-265.476 616.137,-255.271 608.992,-245.672"/>
<polygon fill="#73e73a" stroke="#73e73a" points="697.286,-1436.78 692.576,-1446.68 697.181,-1441.78 697.075,-1446.78 697.075,-1446.78 697.075,-1446.78 697.181,-1441.78 701.574,-1446.87 697.286,-1436.78 697.286,-1436.78"/>
<polygon fill="#73e73a" stroke="#73e73a" points="608.977,-245.653 606.391,-234.996 605.908,-241.706 602.839,-237.759 602.839,-237.759 602.839,-237.759 605.908,-241.706 599.286,-240.521 608.977,-245.653 608.977,-245.653"/>
</g>
<!-- Article&#45;&gt;Comment -->
<g id="edge42" class="edge"><title>Article&#45;&gt;Comment</title>
<path fill="none" stroke="#740401" d="M607.835,-1498.85C593.942,-1475.46 580.002,-1451.2 567.467,-1428 560.346,-1414.82 553.187,-1401.09 546.134,-1387.2"/>
<ellipse fill="none" stroke="#740401" cx="609.899" cy="-1502.32" rx="4.00002" ry="4.00002"/>
<polygon fill="#740401" stroke="#740401" points="546.024,-1386.98 545.533,-1376.03 543.77,-1382.52 541.516,-1378.06 541.516,-1378.06 541.516,-1378.06 543.77,-1382.52 537.499,-1380.09 546.024,-1386.98 546.024,-1386.98"/>
</g>
<!-- Article&#45;&gt;Comment -->
<g id="edge43" class="edge"><title>Article&#45;&gt;Comment</title>
<path fill="none" stroke="#81d88e" d="M604.781,-1589.33C546.359,-1554.25 474.315,-1499.39 440.467,-1428 434.494,-1415.4 430.617,-1401.96 428.365,-1388.15"/>
<ellipse fill="none" stroke="#81d88e" cx="608.393" cy="-1591.48" rx="4.00002" ry="4.00002"/>
<polygon fill="#81d88e" stroke="#81d88e" points="428.338,-1387.95 431.465,-1377.44 427.672,-1383 427.005,-1378.04 427.005,-1378.04 427.005,-1378.04 427.672,-1383 422.545,-1378.64 428.338,-1387.95 428.338,-1387.95"/>
<text text-anchor="middle" x="498.967" y="-1416.3" font-family="Times,serif" font-size="14.00">published_comments</text>
</g>
<!-- Article&#45;&gt;Notification -->
<g id="edge32" class="edge"><title>Article&#45;&gt;Notification</title>
<path fill="none" stroke="#b3174f" d="M603.719,-1630.99C458.755,-1620.72 174.606,-1576.96 47.4668,-1394 -48.4012,-1256.04 27.7006,-1182.83 47.4668,-1016 66.9353,-851.679 96.576,-815.073 134.467,-654 173.943,-486.188 135.354,-425.344 221.467,-276 229.953,-261.283 241.359,-247.459 253.529,-235.094"/>
<ellipse fill="none" stroke="#b3174f" cx="607.798" cy="-1631.27" rx="4" ry="4"/>
<polygon fill="#b3174f" stroke="#b3174f" points="253.632,-234.993 263.92,-231.197 257.199,-231.49 260.767,-227.986 260.767,-227.986 260.767,-227.986 257.199,-231.49 257.614,-224.776 253.632,-234.993 253.632,-234.993"/>
</g>
<!-- Article&#45;&gt;User -->
<g id="edge33" class="edge"><title>Article&#45;&gt;User</title>
<path fill="none" stroke="#1429a9" d="M608.609,-1450.79C602.243,-1431.89 596.672,-1412.75 592.467,-1394 575.187,-1316.97 569.37,-1112.25 567.425,-973.393"/>
<polygon fill="#1429a9" stroke="#1429a9" points="608.642,-1450.88 607.646,-1461.8 610.272,-1455.61 611.901,-1460.34 611.901,-1460.34 611.901,-1460.34 610.272,-1455.61 616.155,-1458.87 608.642,-1450.88 608.642,-1450.88"/>
<polygon fill="#1429a9" stroke="#1429a9" points="567.421,-973.095 571.786,-963.035 567.354,-968.095 567.286,-963.096 567.286,-963.096 567.286,-963.096 567.354,-968.095 562.787,-963.156 567.421,-973.095 567.421,-973.095"/>
<text text-anchor="middle" x="625.967" y="-1201.3" font-family="Times,serif" font-size="14.00">notify_users</text>
</g>
<!-- EmailNotifier -->
<g id="node28" class="node"><title>EmailNotifier</title>
<polygon fill="none" stroke="black" points="2844.47,-1908 2844.47,-1954 2936.47,-1954 2936.47,-1908 2844.47,-1908"/>
<text text-anchor="middle" x="2890.47" y="-1938.8" font-family="Times,serif" font-size="14.00">EmailNotifier</text>
<polyline fill="none" stroke="black" points="2844.47,-1931 2936.47,-1931 "/>
<text text-anchor="middle" x="2890.47" y="-1915.8" font-family="Times,serif" font-size="14.00"> </text>
</g>
<!-- TextFilter -->
<g id="node31" class="node"><title>TextFilter</title>
<path fill="none" stroke="black" d="M2966.47,-1870.5C2966.47,-1870.5 3096.47,-1870.5 3096.47,-1870.5 3102.47,-1870.5 3108.47,-1876.5 3108.47,-1882.5 3108.47,-1882.5 3108.47,-1979.5 3108.47,-1979.5 3108.47,-1985.5 3102.47,-1991.5 3096.47,-1991.5 3096.47,-1991.5 2966.47,-1991.5 2966.47,-1991.5 2960.47,-1991.5 2954.47,-1985.5 2954.47,-1979.5 2954.47,-1979.5 2954.47,-1882.5 2954.47,-1882.5 2954.47,-1876.5 2960.47,-1870.5 2966.47,-1870.5"/>
<text text-anchor="middle" x="3031.47" y="-1976.3" font-family="Times,serif" font-size="14.00">TextFilter</text>
<polyline fill="none" stroke="black" points="2954.47,-1968.5 3108.47,-1968.5 "/>
<text text-anchor="start" x="2962.47" y="-1953.3" font-family="Times,serif" font-size="14.00">id :INTEGER</text>
<text text-anchor="start" x="2962.47" y="-1938.3" font-family="Times,serif" font-size="14.00">name :varchar(255)</text>
<text text-anchor="start" x="2962.47" y="-1923.3" font-family="Times,serif" font-size="14.00">description :varchar(255)</text>
<text text-anchor="start" x="2962.47" y="-1908.3" font-family="Times,serif" font-size="14.00">markup :varchar(255)</text>
<text text-anchor="start" x="2962.47" y="-1893.3" font-family="Times,serif" font-size="14.00">filters :text</text>
<text text-anchor="start" x="2962.47" y="-1878.3" font-family="Times,serif" font-size="14.00">params :text</text>
</g>
<!-- User&#45;&gt;Content -->
<g id="edge47" class="edge"><title>User&#45;&gt;Content</title>
<path fill="none" stroke="#1617e5" d="M556.012,-696.595C555.186,-685.745 554.343,-674.662 553.495,-663.514"/>
<polygon fill="#1617e5" stroke="#1617e5" points="556.033,-696.869 552.305,-707.181 556.412,-701.854 556.792,-706.84 556.792,-706.84 556.792,-706.84 556.412,-701.854 561.279,-706.499 556.033,-696.869 556.033,-696.869"/>
<polygon fill="#1617e5" stroke="#1617e5" points="553.474,-663.232 557.202,-652.92 553.094,-658.247 552.715,-653.261 552.715,-653.261 552.715,-653.261 553.094,-658.247 548.228,-653.603 553.474,-663.232 553.474,-663.232"/>
<text text-anchor="middle" x="597.967" y="-676.3" font-family="Times,serif" font-size="14.00">notify_contents</text>
</g>
<!-- User&#45;&gt;Article -->
<g id="edge48" class="edge"><title>User&#45;&gt;Article</title>
<path fill="none" stroke="#d6bd51" d="M629.4,-970.61C634.615,-980.002 639.993,-989.218 645.467,-998 650.828,-1006.6 655.923,-1006.5 659.467,-1016 687.262,-1090.48 693.95,-1285.34 694.646,-1436.53"/>
<ellipse fill="none" stroke="#d6bd51" cx="627.368" cy="-966.905" rx="4.00002" ry="4.00002"/>
<polygon fill="#d6bd51" stroke="#d6bd51" points="694.647,-1436.88 690.184,-1446.9 694.666,-1441.88 694.684,-1446.88 694.684,-1446.88 694.684,-1446.88 694.666,-1441.88 699.184,-1446.86 694.647,-1436.88 694.647,-1436.88"/>
</g>
<!-- User&#45;&gt;Notification -->
<g id="edge46" class="edge"><title>User&#45;&gt;Notification</title>
<path fill="none" stroke="#f0c912" d="M471.654,-699.549C463.115,-684.557 455.176,-669.203 448.467,-654 386.139,-512.759 350.966,-333.344 335.702,-240.305"/>
<ellipse fill="none" stroke="#f0c912" cx="473.89" cy="-703.415" rx="4.00002" ry="4.00002"/>
<polygon fill="#f0c912" stroke="#f0c912" points="335.666,-240.083 338.511,-229.493 334.867,-235.148 334.069,-230.212 334.069,-230.212 334.069,-230.212 334.867,-235.148 329.627,-230.931 335.666,-240.083 335.666,-240.083"/>
</g>
</g>
</svg>
